<?xml version="1.0" encoding="UTF-8" standalone="no"?>
<!-- Created with Inkscape (http://www.inkscape.org/) -->

<svg
   xmlns:dc="http://purl.org/dc/elements/1.1/"
   xmlns:cc="http://creativecommons.org/ns#"
   xmlns:rdf="http://www.w3.org/1999/02/22-rdf-syntax-ns#"
   xmlns:svg="http://www.w3.org/2000/svg"
   xmlns="http://www.w3.org/2000/svg"
   xmlns:sodipodi="http://sodipodi.sourceforge.net/DTD/sodipodi-0.dtd"
   xmlns:inkscape="http://www.inkscape.org/namespaces/inkscape"
   width="297mm"
   height="210mm"
   id="svg4729"
   version="1.1"
   inkscape:version="0.48.3.1 r9886"
   sodipodi:docname="interface2.svg">
  <sodipodi:namedview
     inkscape:document-units="mm"
     pagecolor="#ffffff"
     bordercolor="#666666"
     borderopacity="1.0"
     inkscape:pageopacity="0.0"
     inkscape:pageshadow="2"
     inkscape:zoom="0.64"
     inkscape:cx="560.56098"
     inkscape:cy="419.67709"
     inkscape:current-layer="layer1"
     id="namedview4733"
     showgrid="false"
     inkscape:window-width="870"
     inkscape:window-height="667"
     inkscape:window-x="663"
     inkscape:window-y="162"
     inkscape:window-maximized="0" />
  <defs
     id="defs4731">
    <marker
       inkscape:stockid="Arrow2Lend"
       orient="auto"
       refY="0"
       refX="0"
       id="Arrow2Lend"
       style="overflow:visible">
      <path
         inkscape:connector-curvature="0"
         id="path4085"
         style="font-size:12px;fill-rule:evenodd;stroke-width:0.625;stroke-linejoin:round"
         d="M 8.7185878,4.0337352 -2.2072895,0.01601326 8.7185884,-4.0017078 c -1.7454984,2.3720609 -1.7354408,5.6174519 -6e-7,8.035443 z"
         transform="matrix(-1.1,0,0,-1.1,-1.1,0)" />
    </marker>
    <marker
       inkscape:stockid="Arrow2Lend"
       orient="auto"
       refY="0"
       refX="0"
       id="Arrow2Lend-1"
       style="overflow:visible">
      <path
         inkscape:connector-curvature="0"
         id="path4085-5"
         style="font-size:12px;fill-rule:evenodd;stroke-width:0.625;stroke-linejoin:round"
         d="M 8.7185878,4.0337352 -2.2072895,0.01601326 8.7185884,-4.0017078 c -1.7454984,2.3720609 -1.7354408,5.6174519 -6e-7,8.035443 z"
         transform="matrix(-1.1,0,0,-1.1,-1.1,0)" />
    </marker>
  </defs>
  <metadata
     id="metadata4735">
    <rdf:RDF>
      <cc:Work
         rdf:about="">
        <dc:format>image/svg+xml</dc:format>
        <dc:type
           rdf:resource="http://purl.org/dc/dcmitype/StillImage" />
        <dc:title />
      </cc:Work>
    </rdf:RDF>
  </metadata>
  <g
     inkscape:label="Layer 1"
     inkscape:groupmode="layer"
     id="layer1">
    <path
       sodipodi:nodetypes="cccccc"
       inkscape:connector-curvature="0"
       id="path5678"
       d="M 667.85938,368.70386 778.125,399.17261 772.3383,536.52433 648.05989,585.9431 682.12451,455.81323 z"
       style="fill:#4c4c4c;fill-opacity:1;stroke:#000000;stroke-width:0.9934752px;stroke-linecap:butt;stroke-linejoin:miter;stroke-opacity:1" />
    <path
       sodipodi:nodetypes="cccccsc"
       inkscape:connector-curvature="0"
       id="path5676"
       d="m 666.79688,370.26636 16.01562,85.9375 -8.088,63.02243 -21.55509,71.04665 -64.31755,-84.81328 c 1.02569,-0.53769 -9.06098,-100.03705 -7.21123,-100.03705 3.51562,0 85.15625,-35.15625 85.15625,-35.15625 z"
       style="fill:#b2b2b2;fill-opacity:1;stroke:none" />
    <path
       style="fill:none;stroke:#000000;stroke-width:2.83464567;stroke-linecap:butt;stroke-linejoin:miter;stroke-opacity:1;stroke-miterlimit:4;stroke-dasharray:none"
       d="m 352.37308,92.0498 35.23955,96.57452 88.05452,-96.527604 39.72693,117.449584 115.15943,-53.90433 -13.39014,124.66258 116.02169,-12.86518 -65.38003,102.74394 111.00832,28.39457 -94.23825,56.06664 89.46781,83.29901 -123.72481,48.7247"
       id="path3757-2"
       inkscape:connector-curvature="0"
       sodipodi:nodetypes="cccccccccccc" />
    <path
       inkscape:connector-curvature="0"
       id="path5086"
       d="m 582.64887,404.83717 82.86408,-34.25048"
       style="fill:none;stroke:#000000;stroke-width:2.83464567;stroke-linecap:butt;stroke-linejoin:miter;stroke-opacity:1;stroke-miterlimit:4;stroke-dasharray:none" />
    <path
       sodipodi:type="arc"
       style="fill:none;stroke:#000000;stroke-width:4.54023245;stroke-linejoin:miter;stroke-miterlimit:4;stroke-opacity:1;stroke-dasharray:none;stroke-dashoffset:0"
       id="path2985"
       sodipodi:cx="228.23668"
       sodipodi:cy="465.77454"
       sodipodi:rx="246.83904"
       sodipodi:ry="246.83904"
       d="M 402.77823,291.23297 A 246.83904,246.83904 0 0 1 59.953657,646.35785"
       transform="matrix(1.1012652,0,0,-1.1012652,158.30956,972.9499)"
       sodipodi:start="5.4977871"
       sodipodi:end="8.6041365"
       sodipodi:open="true" />
    <path
       style="fill:none;stroke:#000000;stroke-width:2.83464575;stroke-linecap:butt;stroke-linejoin:miter;stroke-miterlimit:4;stroke-opacity:1;stroke-dasharray:none"
       d="m 337.63913,281.85525 50.34637,-92.53672 46.9583,91.10577 81.64748,-71.204 7.07147,115.56348 89.53522,-42.10706 -32.29718,122.24031 100.26265,51.56297 -50.09085,27.01534 -43.19349,23.29541 61.75844,80.35107"
       id="path3757"
       inkscape:connector-curvature="0"
       sodipodi:nodetypes="ccccccccccc" />
    <path
       sodipodi:nodetypes="ccccc"
       style="fill:none;stroke:#000000;stroke-width:2.83464567;stroke-linecap:butt;stroke-linejoin:miter;stroke-opacity:1;stroke-miterlimit:4;stroke-dasharray:none"
       d="m 337.63913,280.4243 97.30466,-1.43095 90.14991,44.35948 58.66899,81.5642 6.04991,101.82385"
       id="path3795"
       inkscape:connector-curvature="0" />
    <path
       sodipodi:type="arc"
       style="fill:#ffffff;fill-opacity:1;stroke:#000000;stroke-width:4.63398457;stroke-linejoin:miter;stroke-miterlimit:4;stroke-opacity:1;stroke-dasharray:none;stroke-dashoffset:0"
       id="path3799"
       sodipodi:cx="344.85916"
       sodipodi:cy="387.78769"
       sodipodi:rx="10.016657"
       sodipodi:ry="10.016657"
       d="m 354.87582,387.78769 a 10.016657,10.016657 0 1 1 -20.03332,0 10.016657,10.016657 0 1 1 20.03332,0 z"
       transform="matrix(0.86318801,0,0,0.86318801,40.497441,-56.634681)" />
    <path
       sodipodi:type="arc"
       style="fill:#ffffff;fill-opacity:1;stroke:#000000;stroke-width:4.63398457;stroke-linejoin:miter;stroke-miterlimit:4;stroke-opacity:1;stroke-dasharray:none;stroke-dashoffset:0"
       id="path3799-6"
       sodipodi:cx="344.85916"
       sodipodi:cy="387.78769"
       sodipodi:rx="10.016657"
       sodipodi:ry="10.016657"
       d="m 354.87582,387.78769 a 10.016657,10.016657 0 1 1 -20.03332,0 10.016657,10.016657 0 1 1 20.03332,0 z"
       transform="matrix(0.86318801,0,0,0.86318801,137.2655,-57.171291)" />
    <path
       sodipodi:type="arc"
       style="fill:#ffffff;fill-opacity:1;stroke:#000000;stroke-width:4.63398457;stroke-linejoin:miter;stroke-miterlimit:4;stroke-opacity:1;stroke-dasharray:none;stroke-dashoffset:0"
       id="path3799-67"
       sodipodi:cx="344.85916"
       sodipodi:cy="387.78769"
       sodipodi:rx="10.016657"
       sodipodi:ry="10.016657"
       d="m 354.87582,387.78769 a 10.016657,10.016657 0 1 1 -20.03332,0 10.016657,10.016657 0 1 1 20.03332,0 z"
       transform="matrix(0.86318801,0,0,0.86318801,227.41541,-11.38086)" />
    <path
       sodipodi:type="arc"
       style="fill:#ffffff;fill-opacity:1;stroke:#000000;stroke-width:4.63398457;stroke-linejoin:miter;stroke-miterlimit:4;stroke-opacity:1;stroke-dasharray:none;stroke-dashoffset:0"
       id="path3799-7"
       sodipodi:cx="344.85916"
       sodipodi:cy="387.78769"
       sodipodi:rx="10.016657"
       sodipodi:ry="10.016657"
       d="m 354.87582,387.78769 a 10.016657,10.016657 0 1 1 -20.03332,0 10.016657,10.016657 0 1 1 20.03332,0 z"
       transform="matrix(0.86318801,0,0,0.86318801,291.8082,171.78086)" />
    <path
       sodipodi:nodetypes="ccc"
       style="fill:none;stroke:#000000;stroke-width:2.83464567;stroke-linecap:butt;stroke-linejoin:miter;stroke-miterlimit:4;stroke-opacity:1;stroke-dasharray:none;marker-end:url(#Arrow2Lend)"
       d="m 989.64599,92.08338 c -8.0946,2.02367 -289.66698,0 -289.66698,0 l -47.77633,144.39655"
       id="path4059"
       inkscape:connector-curvature="0" />
    <path
       sodipodi:type="arc"
       style="fill:#ffffff;fill-opacity:1;stroke:#000000;stroke-width:4.63398457;stroke-linejoin:miter;stroke-miterlimit:4;stroke-opacity:1;stroke-dasharray:none;stroke-dashoffset:0"
       id="path3799-2"
       sodipodi:cx="344.85916"
       sodipodi:cy="387.78769"
       sodipodi:rx="10.016657"
       sodipodi:ry="10.016657"
       d="m 354.87582,387.78769 a 10.016657,10.016657 0 1 1 -20.03332,0 10.016657,10.016657 0 1 1 20.03332,0 z"
       transform="matrix(0.86318801,0,0,0.86318801,286.0844,70.18335)" />
    <path
       inkscape:connector-curvature="0"
       id="path5088"
       d="m 353.125,94.09448 123.4375,-3.125 156.25,67.1875 100,107.8125 45.3125,132.8125 -4.6875,140.625"
       style="fill:none;stroke:#000000;stroke-width:2.83464567;stroke-linecap:butt;stroke-linejoin:miter;stroke-opacity:1;stroke-miterlimit:4;stroke-dasharray:none" />
    <path
       sodipodi:type="arc"
       style="fill:#ffffff;fill-opacity:1;stroke:#000000;stroke-width:4.63398457;stroke-linejoin:miter;stroke-miterlimit:4;stroke-opacity:1;stroke-dasharray:none;stroke-dashoffset:0"
       id="path3799-3"
       sodipodi:cx="344.85916"
       sodipodi:cy="387.78769"
       sodipodi:rx="10.016657"
       sodipodi:ry="10.016657"
       d="m 354.87582,387.78769 a 10.016657,10.016657 0 1 1 -20.03332,0 10.016657,10.016657 0 1 1 20.03332,0 z"
       transform="matrix(0.86318801,0,0,0.86318801,479.28957,64.37915)" />
    <path
       sodipodi:type="arc"
       style="fill:#ffffff;fill-opacity:1;stroke:#000000;stroke-width:4.63398457;stroke-linejoin:miter;stroke-miterlimit:4;stroke-opacity:1;stroke-dasharray:none;stroke-dashoffset:0"
       id="path3799-21"
       sodipodi:cx="344.85916"
       sodipodi:cy="387.78769"
       sodipodi:rx="10.016657"
       sodipodi:ry="10.016657"
       d="m 354.87582,387.78769 a 10.016657,10.016657 0 1 1 -20.03332,0 10.016657,10.016657 0 1 1 20.03332,0 z"
       transform="matrix(0.86318801,0,0,0.86318801,435.34625,-67.744218)" />
    <path
       sodipodi:type="arc"
       style="fill:#ffffff;fill-opacity:1;stroke:#000000;stroke-width:4.63398457;stroke-linejoin:miter;stroke-miterlimit:4;stroke-opacity:1;stroke-dasharray:none;stroke-dashoffset:0"
       id="path3799-5"
       sodipodi:cx="344.85916"
       sodipodi:cy="387.78769"
       sodipodi:rx="10.016657"
       sodipodi:ry="10.016657"
       d="m 354.87582,387.78769 a 10.016657,10.016657 0 1 1 -20.03332,0 10.016657,10.016657 0 1 1 20.03332,0 z"
       transform="matrix(0.86318801,0,0,0.86318801,335.10157,-176.66515)" />
    <path
       sodipodi:type="arc"
       style="fill:#ffffff;fill-opacity:1;stroke:#000000;stroke-width:4.63398457;stroke-linejoin:miter;stroke-miterlimit:4;stroke-opacity:1;stroke-dasharray:none;stroke-dashoffset:0"
       id="path3799-4"
       sodipodi:cx="344.85916"
       sodipodi:cy="387.78769"
       sodipodi:rx="10.016657"
       sodipodi:ry="10.016657"
       d="m 354.87582,387.78769 a 10.016657,10.016657 0 1 1 -20.03332,0 10.016657,10.016657 0 1 1 20.03332,0 z"
       transform="matrix(0.86318801,0,0,0.86318801,476.24402,204.9724)" />
    <path
       sodipodi:type="arc"
       style="fill:#ffffff;fill-opacity:1;stroke:#000000;stroke-width:4.63398457;stroke-linejoin:miter;stroke-miterlimit:4;stroke-opacity:1;stroke-dasharray:none;stroke-dashoffset:0"
       id="path3799-4-9"
       sodipodi:cx="344.85916"
       sodipodi:cy="387.78769"
       sodipodi:rx="10.016657"
       sodipodi:ry="10.016657"
       d="m 354.87582,387.78769 a 10.016657,10.016657 0 1 1 -20.03332,0 10.016657,10.016657 0 1 1 20.03332,0 z"
       transform="matrix(0.86318801,0,0,0.86318801,217.94671,-125.0142)" />
    <path
       sodipodi:type="arc"
       style="fill:#ffffff;fill-opacity:1;stroke:#000000;stroke-width:4.63398457;stroke-linejoin:miter;stroke-miterlimit:4;stroke-opacity:1;stroke-dasharray:none;stroke-dashoffset:0"
       id="path3799-4-3"
       sodipodi:cx="344.85916"
       sodipodi:cy="387.78769"
       sodipodi:rx="10.016657"
       sodipodi:ry="10.016657"
       d="m 354.87582,387.78769 a 10.016657,10.016657 0 1 1 -20.03332,0 10.016657,10.016657 0 1 1 20.03332,0 z"
       transform="matrix(0.86318801,0,0,0.86318801,89.821708,-148.4517)" />
    <path
       sodipodi:type="arc"
       style="fill:#ffffff;fill-opacity:1;stroke:#000000;stroke-width:4.63398457;stroke-linejoin:miter;stroke-miterlimit:4;stroke-opacity:1;stroke-dasharray:none;stroke-dashoffset:0"
       id="path3799-4-4"
       sodipodi:cx="344.85916"
       sodipodi:cy="387.78769"
       sodipodi:rx="10.016657"
       sodipodi:ry="10.016657"
       d="m 354.87582,387.78769 a 10.016657,10.016657 0 1 1 -20.03332,0 10.016657,10.016657 0 1 1 20.03332,0 z"
       transform="matrix(0.86318801,0,0,0.86318801,55.446708,-242.2017)" />
    <path
       sodipodi:type="arc"
       style="fill:#ffffff;fill-opacity:1;stroke:#000000;stroke-width:4.63398457;stroke-linejoin:miter;stroke-miterlimit:4;stroke-opacity:1;stroke-dasharray:none;stroke-dashoffset:0"
       id="path3799-4-7"
       sodipodi:cx="344.85916"
       sodipodi:cy="387.78769"
       sodipodi:rx="10.016657"
       sodipodi:ry="10.016657"
       d="m 354.87582,387.78769 a 10.016657,10.016657 0 1 1 -20.03332,0 10.016657,10.016657 0 1 1 20.03332,0 z"
       transform="matrix(0.86318801,0,0,0.86318801,317.94671,-53.139203)" />
    <path
       sodipodi:type="arc"
       style="fill:#ffffff;fill-opacity:1;stroke:#000000;stroke-width:4.63398457;stroke-linejoin:miter;stroke-miterlimit:4;stroke-opacity:1;stroke-dasharray:none;stroke-dashoffset:0"
       id="path3799-4-31"
       sodipodi:cx="344.85916"
       sodipodi:cy="387.78769"
       sodipodi:rx="10.016657"
       sodipodi:ry="10.016657"
       d="m 354.87582,387.78769 a 10.016657,10.016657 0 1 1 -20.03332,0 10.016657,10.016657 0 1 1 20.03332,0 z"
       transform="matrix(0.86318801,0,0,0.86318801,369.50921,35.923297)" />
    <path
       sodipodi:type="arc"
       style="fill:#ffffff;fill-opacity:1;stroke:#000000;stroke-width:4.63398457;stroke-linejoin:miter;stroke-miterlimit:4;stroke-opacity:1;stroke-dasharray:none;stroke-dashoffset:0"
       id="path3799-4-78"
       sodipodi:cx="344.85916"
       sodipodi:cy="387.78769"
       sodipodi:rx="10.016657"
       sodipodi:ry="10.016657"
       d="m 354.87582,387.78769 a 10.016657,10.016657 0 1 1 -20.03332,0 10.016657,10.016657 0 1 1 20.03332,0 z"
       transform="matrix(0.86318801,0,0,0.86318801,383.57171,120.2983)" />
    <path
       sodipodi:type="arc"
       style="fill:#ffffff;fill-opacity:1;stroke:#000000;stroke-width:4.63398457;stroke-linejoin:miter;stroke-miterlimit:4;stroke-opacity:1;stroke-dasharray:none;stroke-dashoffset:0"
       id="path3799-4-2"
       sodipodi:cx="344.85916"
       sodipodi:cy="387.78769"
       sodipodi:rx="10.016657"
       sodipodi:ry="10.016657"
       d="m 354.87582,387.78769 a 10.016657,10.016657 0 1 1 -20.03332,0 10.016657,10.016657 0 1 1 20.03332,0 z"
       transform="matrix(0.86318801,0,0,0.86318801,351.97606,248.05206)" />
    <path
       sodipodi:type="arc"
       style="fill:#ffffff;fill-opacity:1;stroke:#000000;stroke-width:4.63398457;stroke-linejoin:miter;stroke-miterlimit:4;stroke-opacity:1;stroke-dasharray:none;stroke-dashoffset:0"
       id="path3799-79"
       sodipodi:cx="344.85916"
       sodipodi:cy="387.78769"
       sodipodi:rx="10.016657"
       sodipodi:ry="10.016657"
       d="m 354.87582,387.78769 a 10.016657,10.016657 0 1 1 -20.03332,0 10.016657,10.016657 0 1 1 20.03332,0 z"
       transform="matrix(0.86318801,0,0,0.86318801,178.33544,-242.0717)" />
    <path
       sodipodi:nodetypes="ccc"
       inkscape:connector-curvature="0"
       id="path5680"
       d="m 439.0625,412.84448 62.5,0 64.0625,34.375"
       style="fill:none;stroke:#000000;stroke-width:2.83464575;stroke-linecap:butt;stroke-linejoin:miter;stroke-miterlimit:4;stroke-opacity:1;stroke-dasharray:none;marker-end:url(#Arrow2Lend)" />
    <path
       sodipodi:nodetypes="ccc"
       inkscape:connector-curvature="0"
       id="path5680-6"
       d="m 923.19453,384.69295 -57.8125,-1.5625 -64.06251,53.125"
       style="fill:none;stroke:#000000;stroke-width:2.83464575;stroke-linecap:butt;stroke-linejoin:miter;stroke-miterlimit:4;stroke-opacity:1;stroke-dasharray:none;marker-end:url(#Arrow2Lend)" />
    <g
       transform="matrix(0.89285716,0,0,0.89285716,182.22689,78.528369)"
       id="g6111">
      <g
         style="font-style:normal;font-variant:normal;font-weight:normal;font-stretch:normal;letter-spacing:normal;word-spacing:normal;text-anchor:start;fill:none;stroke:#000000;stroke-linecap:butt;stroke-linejoin:miter;stroke-miterlimit:10.43299961;stroke-opacity:1;stroke-dasharray:none;stroke-dashoffset:0"
         id="g6113"
         transform="matrix(1.0629921,0,0,-1.0629921,-186.02362,789.27165)"
         xml:space="preserve"
         stroke-miterlimit="10.433"
         font-style="normal"
         font-variant="normal"
         font-weight="normal"
         font-stretch="normal"
         font-size-adjust="none"
         letter-spacing="normal"
         word-spacing="normal"><path
           style="fill:#000000;stroke-width:0"
           inkscape:connector-curvature="0"
           d="m 477.29,439.57 0,0.01 0,0.01 0,0 0,0.01 0,0.01 0,0.01 0,0 0,0.01 0.01,0.02 0,0.03 0,0.02 0.01,0.02 0.01,0.03 0,0.03 0.01,0.02 0,0.03 0.01,0.03 0.01,0.03 0.01,0.06 0.02,0.06 0,0.03 0.01,0.02 0.01,0.03 0,0.03 0.01,0.02 0.01,0.02 0,0.02 0.01,0.02 0,0.01 0,0.01 0,0.01 0,0.01 0.01,0 0,0.01 0,0.01 0,0 0,0.01 0,0 0,0 0,0.01 c 0,0.04 0,0.5 -0.59,0.5 -0.5,0 -0.55,-0.16 -0.75,-1 l -2.89,-11.5 c -7.92,-0.25 -15.25,-6.88 -15.25,-13.66 0,-4.73 3.48,-8.67 9.56,-9.01 l 0.25,1.09 c -2.98,0.14 -6.58,1.89 -6.58,6.87 0,5.99 4.3,12.96 11.72,13.6 l -5.14,-20.47 -0.25,-1.09 c -0.39,-1.55 -0.73,-3.15 -1.14,-4.69 -0.59,-2.35 -1.09,-4.24 -1.09,-4.39 0,-0.49 0.34,-0.55 0.59,-0.55 0.25,0 0.36,0.06 0.5,0.2 0.09,0.1 0.41,1.3 0.55,2 l 1.89,7.43 0.25,1.09 5.14,20.47 c 3.78,-0.19 6.62,-2.49 6.62,-6.88 0,-5.87 -4.28,-13 -11.76,-13.59 l -0.25,-1.09 c 8.03,0.25 15.25,6.96 15.25,13.64 0,3.93 -2.64,8.53 -9.57,9.03 z"
           id="path6115" /><path
           style="fill:#000000;stroke-width:0"
           inkscape:connector-curvature="0"
           d="m 496.83,420.92 0,0.04 0,0.04 0,0.05 0,0.04 0,0.03 0,0.04 0,0.04 0,0.03 0,0.04 -0.01,0.03 0,0.03 0,0.03 0,0.03 -0.01,0.03 0,0.03 0,0.02 -0.01,0.03 0,0.02 -0.01,0.03 0,0.02 -0.01,0.04 -0.02,0.04 -0.02,0.03 -0.02,0.03 -0.02,0.03 -0.02,0.03 -0.03,0.02 -0.03,0.02 -0.03,0.02 -0.04,0.01 -0.04,0.01 -0.05,0.02 -0.02,0 -0.02,0 -0.03,0.01 -0.03,0 -0.02,0.01 -0.03,0 -0.03,0 -0.03,0 -0.03,0 -0.04,0.01 -0.03,0 -0.04,0 -0.03,0 -0.04,0 -0.04,0 -0.04,0 -0.04,0 -0.05,0 -0.04,0 -0.04,0 c -2.24,-2.2 -5.4,-2.23 -6.83,-2.23 v -1.25 c 0.84,0 3.14,0 5.04,0.97 v -17.77 c 0,-1.16 0,-1.61 -3.48,-1.61 h -1.31 v -1.25 c 0.62,0.03 4.9,0.14 6.2,0.14 1.08,0 5.47,-0.11 6.23,-0.14 v 1.25 h -1.32 c -3.49,0 -3.49,0.45 -3.49,1.61 z"
           id="path6117" /></g>    </g>
    <g
       id="g6265"
       transform="translate(565.625,9.3750001)">
      <g
         word-spacing="normal"
         letter-spacing="normal"
         font-size-adjust="none"
         font-stretch="normal"
         font-weight="normal"
         font-variant="normal"
         font-style="normal"
         stroke-miterlimit="10.433"
         xml:space="preserve"
         transform="matrix(1.0629921,0,0,-1.0629921,-186.02362,789.27165)"
         id="g6267"
         style="font-style:normal;font-variant:normal;font-weight:normal;font-stretch:normal;letter-spacing:normal;word-spacing:normal;text-anchor:start;fill:none;stroke:#000000;stroke-linecap:butt;stroke-linejoin:miter;stroke-miterlimit:10.43299961;stroke-opacity:1;stroke-dasharray:none;stroke-dashoffset:0"><path
           id="path6269"
           d="m 477.29,439.57 0,0.01 0,0.01 0,0 0,0.01 0,0.01 0,0.01 0,0 0,0.01 0.01,0.02 0,0.03 0,0.02 0.01,0.02 0.01,0.03 0,0.03 0.01,0.02 0,0.03 0.01,0.03 0.01,0.03 0.01,0.06 0.02,0.06 0,0.03 0.01,0.02 0.01,0.03 0,0.03 0.01,0.02 0.01,0.02 0,0.02 0.01,0.02 0,0.01 0,0.01 0,0.01 0,0.01 0.01,0 0,0.01 0,0.01 0,0 0,0.01 0,0 0,0 0,0.01 c 0,0.04 0,0.5 -0.59,0.5 -0.5,0 -0.55,-0.16 -0.75,-1 l -2.89,-11.5 c -7.92,-0.25 -15.25,-6.88 -15.25,-13.66 0,-4.73 3.48,-8.67 9.56,-9.01 l 0.25,1.09 c -2.98,0.14 -6.58,1.89 -6.58,6.87 0,5.99 4.3,12.96 11.72,13.6 l -5.14,-20.47 -0.25,-1.09 c -0.39,-1.55 -0.73,-3.15 -1.14,-4.69 -0.59,-2.35 -1.09,-4.24 -1.09,-4.39 0,-0.49 0.34,-0.55 0.59,-0.55 0.25,0 0.36,0.06 0.5,0.2 0.09,0.1 0.41,1.3 0.55,2 l 1.89,7.43 0.25,1.09 5.14,20.47 c 3.78,-0.19 6.62,-2.49 6.62,-6.88 0,-5.87 -4.28,-13 -11.76,-13.59 l -0.25,-1.09 c 8.03,0.25 15.25,6.96 15.25,13.64 0,3.93 -2.64,8.53 -9.57,9.03 z"
           inkscape:connector-curvature="0"
           style="fill:#000000;stroke-width:0" /><path
           id="path6271"
           d="m 502.75,405.11 h -1.18 c -0.1,-0.77 -0.46,-2.83 -0.91,-3.18 -0.27,-0.2 -2.95,-0.2 -3.44,-0.2 h -6.42 c 3.66,3.23 4.88,4.2 6.97,5.84 2.58,2.07 4.98,4.22 4.98,7.54 0,4.21 -3.68,6.79 -8.15,6.79 -4.31,0 -7.25,-3.03 -7.25,-6.23 0,-1.78 1.5,-1.96 1.86,-1.96 0.83,0 1.84,0.6 1.84,1.85 0,0.62 -0.25,1.84 -2.06,1.84 1.08,2.47 3.45,3.24 5.09,3.24 3.49,0 5.3,-2.71 5.3,-5.53 0,-3.04 -2.16,-5.44 -3.28,-6.69 l -8.39,-8.3 c -0.36,-0.31 -0.36,-0.39 -0.36,-1.36 h 14.36 z"
           inkscape:connector-curvature="0"
           style="fill:#000000;stroke-width:0" /></g>    </g>
    <path
       id="path3139"
       d="m 194.13265,234.8812 -4.55407,3.71895 0.7441,1.07039 c 2.23746,-1.55541 2.69224,-1.56426 3.85879,0.11383 l 6.43766,9.26059 c 1.07054,1.53998 0.69072,1.80402 -1.61579,3.40742 l 0.7441,1.07039 c 1.07401,-0.79782 2.87885,-2.16516 3.70754,-2.74124 1.2085,-0.84011 2.46291,-1.59946 3.66088,-2.38104 l -0.7441,-1.07039 c -2.27199,1.57941 -2.53702,1.50758 -3.46355,0.17478 z"
       inkscape:connector-curvature="0"
       style="font-style:normal;font-variant:normal;font-weight:normal;font-stretch:normal;letter-spacing:normal;word-spacing:normal;text-anchor:start;fill:#000000;stroke:#000000;stroke-width:0;stroke-linecap:butt;stroke-linejoin:miter;stroke-miterlimit:10.43299961;stroke-opacity:1;stroke-dasharray:none;stroke-dashoffset:0" />
    <path
       id="path3141"
       d="m 190.11071,228.7862 -0.0741,-0.0919 -0.0789,-0.0988 -0.081,-0.0871 -0.081,-0.0871 -0.0831,-0.0754 -0.09,-0.0706 -0.09,-0.0706 -0.0921,-0.0589 -0.099,-0.0541 -0.099,-0.0541 -0.0942,-0.0472 -0.0963,-0.0354 -0.10325,-0.0307 -0.10326,-0.0306 -0.10324,-0.0307 -0.10057,-0.012 -0.11226,-0.0141 -0.10055,-0.012 -0.10266,-3.4e-4 -0.10957,0.004 -0.10957,0.004 -0.10476,0.0113 -0.1,0.0182 -0.10687,0.023 -0.0952,0.0252 -0.10898,0.0348 -0.0973,0.0369 -0.0973,0.0369 -0.0994,0.0486 -0.0946,0.0555 -0.0946,0.0555 -0.0946,0.0555 c -1.06348,0.73931 -1.17503,2.19965 -0.55575,3.09048 0.64809,0.93228 2.027,1.29505 3.09049,0.55575 0.9668,-0.67209 1.33075,-1.99036 0.56265,-3.09528 z"
       inkscape:connector-curvature="0"
       style="font-style:normal;font-variant:normal;font-weight:normal;font-stretch:normal;letter-spacing:normal;word-spacing:normal;text-anchor:start;fill:#000000;stroke:#000000;stroke-width:0;stroke-linecap:butt;stroke-linejoin:miter;stroke-miterlimit:10.43299961;stroke-opacity:1;stroke-dasharray:none;stroke-dashoffset:0" />
    <path
       id="path3143"
       d="m 203.70086,233.21802 6.41365,9.22606 c 1.07055,1.53998 0.69074,1.80401 -1.61578,3.40743 l 0.74409,1.07038 c 1.1845,-0.87464 2.87885,-2.16516 3.81112,-2.81325 0.89084,-0.61928 2.73914,-1.79148 3.92331,-2.56347 l -0.7441,-1.07038 c -2.29271,1.59382 -2.67252,1.85784 -3.74306,0.31787 l -4.40219,-6.33256 c -2.49153,-3.58408 -1.38838,-7.1985 0.81454,-8.7299 2.16841,-1.50741 3.83269,0.091 5.19607,2.05223 l 5.57354,8.01756 c 1.07055,1.53998 0.69764,1.79921 -1.61579,3.40743 l 0.74411,1.07039 c 1.1845,-0.87464 2.89265,-2.17476 3.81802,-2.81805 0.89775,-0.62409 2.73223,-1.78669 3.93021,-2.56827 l -0.7441,-1.07039 c -1.78859,1.24337 -2.6518,1.84345 -3.40643,0.83159 l -4.56541,-6.56736 c -2.05467,-2.95565 -2.79877,-4.02603 -4.71677,-4.51596 -0.88935,-0.26265 -2.50616,-0.14251 -4.4881,1.23528 -2.5137,1.74744 -3.10921,4.35341 -2.5953,7.14076 l -2.50114,-3.59789 -4.5955,3.74776 0.74411,1.07039 c 2.40319,-1.67062 2.84954,-1.63265 4.0209,0.0523 z"
       inkscape:connector-curvature="0"
       style="font-style:normal;font-variant:normal;font-weight:normal;font-stretch:normal;letter-spacing:normal;word-spacing:normal;text-anchor:start;fill:#000000;stroke:#000000;stroke-width:0;stroke-linecap:butt;stroke-linejoin:miter;stroke-miterlimit:10.43299961;stroke-opacity:1;stroke-dasharray:none;stroke-dashoffset:0" />
    <path
       id="path3145"
       d="m 222.68296,217.17474 4.91688,-3.41805 -0.7441,-1.0704 -4.91689,3.41806 -4.40218,-6.33256 -0.86322,0.60008 c 1.92413,2.84155 3.45181,7.2493 0.17994,9.71843 l 0.53286,0.76653 2.92113,-2.03067 6.60088,9.49539 c 2.93799,4.22631 6.42339,2.41796 7.65952,1.55864 2.43772,-1.69463 1.7168,-4.80924 0.1854,-7.01217 l -1.36338,-1.96123 -0.86323,0.60008 1.31058,1.88527 c 1.77143,2.54822 1.6429,4.57349 0.37224,5.45681 -2.2996,1.59861 -4.4743,-1.52969 -4.88235,-2.11667 z"
       inkscape:connector-curvature="0"
       style="font-style:normal;font-variant:normal;font-weight:normal;font-stretch:normal;letter-spacing:normal;word-spacing:normal;text-anchor:start;fill:#000000;stroke:#000000;stroke-width:0;stroke-linecap:butt;stroke-linejoin:miter;stroke-miterlimit:10.43299961;stroke-opacity:1;stroke-dasharray:none;stroke-dashoffset:0" />
    <path
       id="path3147"
       d="m 237.92139,215.19582 -0.46953,-0.7491 c -3.36181,-5.26327 -1.06359,-8.13105 0.11729,-8.95197 3.53573,-2.45792 7.10705,1.9427 8.03837,3.28242 l -8.15566,5.66955 0.46953,0.7491 9.60588,-6.67769 c 0.75273,-0.52327 0.8494,-0.59047 0.34534,-1.31557 -2.36192,-3.39763 -6.53136,-5.44653 -10.82673,-2.46053 -3.99151,2.77478 -4.71022,8.5188 -1.71462,12.82798 3.20203,4.60612 9.13243,5.43086 13.09632,2.67529 4.19869,-2.91879 3.08391,-7.8082 2.63265,-8.45734 -0.24003,-0.34528 -0.56216,-0.23402 -0.7348,-0.11401 -0.31076,0.21604 -0.22889,0.46641 -0.11974,0.80025 1.26804,4.37315 -1.82573,6.52383 -2.17102,6.76387 -1.72643,1.20016 -3.81597,1.12653 -5.48654,0.40315 -2.18321,-0.93038 -3.76742,-3.20927 -4.62674,-4.4454 z"
       inkscape:connector-curvature="0"
       style="font-style:normal;font-variant:normal;font-weight:normal;font-stretch:normal;letter-spacing:normal;word-spacing:normal;text-anchor:start;fill:#000000;stroke:#000000;stroke-width:0;stroke-linecap:butt;stroke-linejoin:miter;stroke-miterlimit:10.43299961;stroke-opacity:1;stroke-dasharray:none;stroke-dashoffset:0" />
    <path
       id="path3149"
       d="m 252.66953,199.78094 -2.62115,-3.77053 -4.51954,3.69496 0.7441,1.07038 c 2.4032,-1.67062 2.84955,-1.63265 4.02091,0.0523 l 6.41366,9.22607 c 1.07054,1.53997 0.69072,1.80401 -1.61579,3.40742 l 0.7441,1.07039 c 1.32261,-0.97065 2.87884,-2.16516 3.85255,-2.84205 1.36734,-0.95053 2.99018,-2.07868 4.44814,-2.92832 l -0.7441,-1.07039 -0.7251,0.50407 c -2.54821,1.77144 -2.88341,1.45133 -3.74753,0.2083 l -3.68209,-5.2967 c -2.36192,-3.39762 -3.04319,-7.4719 -0.42592,-9.29134 0.2348,-0.16322 0.30385,-0.21123 0.40382,-0.22951 -0.0913,0.10444 -0.49383,0.99884 0.12546,1.88968 0.67689,0.97371 1.75244,0.97376 2.51897,0.4409 0.61461,-0.42726 1.19459,-1.43478 0.43129,-2.5328 -0.7681,-1.10491 -2.52498,-1.34833 -4.00281,-0.321 -2.51368,1.74744 -2.16291,4.90426 -1.61897,6.71813 z"
       inkscape:connector-curvature="0"
       style="font-style:normal;font-variant:normal;font-weight:normal;font-stretch:normal;letter-spacing:normal;word-spacing:normal;text-anchor:start;fill:#000000;stroke:#000000;stroke-width:0;stroke-linecap:butt;stroke-linejoin:miter;stroke-miterlimit:10.43299961;stroke-opacity:1;stroke-dasharray:none;stroke-dashoffset:0" />
    <path
       id="path3151"
       d="m 264.09836,186.79644 -2.77476,-3.99151 c -2.10749,-3.03161 -1.60437,-5.82944 -0.0989,-6.87598 0.11049,-0.0768 0.62841,-0.43686 1.31917,-0.5483 -0.33003,0.42405 -0.63261,1.30018 -0.0373,2.15649 0.55207,0.79416 1.58459,1.10068 2.50997,0.4574 0.99442,-0.6913 1.03229,-1.74192 0.45621,-2.57061 -0.88332,-1.27065 -2.94818,-1.51507 -4.7713,-0.2477 -2.4032,1.67062 -4.06385,5.52921 -1.52912,9.17543 l 2.75077,3.95699 -2.71395,1.88665 0.74409,1.07039 2.71395,-1.88665 7.74824,11.14585 c 1.07054,1.53998 0.69763,1.79922 -1.61579,3.40743 l 0.74411,1.07039 c 1.32952,-0.97546 2.89264,-2.17477 3.85254,-2.84206 1.37424,-0.95532 2.99019,-2.07867 4.44815,-2.92831 l -0.7441,-1.07039 -0.72511,0.50407 c -2.54131,1.76663 -2.8696,1.44173 -3.73371,0.1987 l -7.69543,-11.0699 3.91555,-2.72196 -0.7441,-1.07038 z"
       inkscape:connector-curvature="0"
       style="font-style:normal;font-variant:normal;font-weight:normal;font-stretch:normal;letter-spacing:normal;word-spacing:normal;text-anchor:start;fill:#000000;stroke:#000000;stroke-width:0;stroke-linecap:butt;stroke-linejoin:miter;stroke-miterlimit:10.43299961;stroke-opacity:1;stroke-dasharray:none;stroke-dashoffset:0" />
    <path
       id="path3153"
       d="m 288.54986,187.91841 0.10502,0.12161 0.10712,0.1099 0.11884,0.11201 0.11404,0.1051 0.12573,0.1072 0.12094,0.10031 0.12785,0.0955 0.13475,0.0907 0.14166,0.0859 0.13685,0.079 0.14857,0.0811 0.13896,0.0673 0.14587,0.0625 0.15277,0.0577 0.15277,0.0577 0.15008,0.0391 0.15699,0.0343 0.15698,0.0343 0.15909,0.0225 0.15428,0.0156 0.1612,0.0109 0.1585,-0.008 0.15849,-0.008 0.16061,-0.0194 0.16271,-0.0312 0.1579,-0.0381 0.16002,-0.0498 0.15521,-0.0567 0.15732,-0.0684 0.15252,-0.0753 0.15461,-0.087 0.15673,-0.0987 c 0.7113,-0.49447 2.4767,-2.44898 0.54204,-5.23199 l -1.33458,-1.91979 -0.86322,0.60008 1.33459,1.91979 c 1.38738,1.99576 0.67508,2.79821 0.28836,3.06704 -1.13254,0.78731 -2.34119,-0.65666 -2.46121,-0.8293 l -4.78624,-6.88501 c -1.00813,-1.45021 -1.93466,-2.78301 -4.05199,-3.20606 -2.28005,-0.39188 -4.37672,0.24622 -6.02719,1.39357 -2.83136,1.96826 -4.08148,5.22392 -2.50206,7.4959 0.71529,1.02896 1.81872,1.14279 2.70956,0.5235 0.9599,-0.66728 1.10825,-1.79472 0.48417,-2.69246 -0.28324,-0.40744 -1.24319,-1.41997 -2.86511,-0.36416 0.10176,-1.84277 1.52273,-3.39395 2.62074,-4.15725 1.69191,-1.17615 4.57755,-1.19503 6.70904,1.87112 l 0.88331,1.27066 0.50407,0.7251 2.39072,3.43905 c 2.27551,3.27333 0.60975,6.15211 -0.94403,7.23226 -1.68501,1.17136 -3.93389,0.94218 -5.12444,-0.77044 -1.31057,-1.88527 -1.85955,-5.75447 3.67775,-9.90087 h 0 l -0.50407,-0.72504 c -1.67994,1.31125 -4.01323,3.09716 -5.46154,5.64042 -1.76452,2.95771 -1.38438,5.34637 -0.33303,6.85872 1.93465,2.78302 5.8702,1.32752 8.0386,-0.17988 2.2789,-1.5842 2.89808,-4.05299 2.43078,-6.12499 z"
       inkscape:connector-curvature="0"
       style="font-style:normal;font-variant:normal;font-weight:normal;font-stretch:normal;letter-spacing:normal;word-spacing:normal;text-anchor:start;fill:#000000;stroke:#000000;stroke-width:0;stroke-linecap:butt;stroke-linejoin:miter;stroke-miterlimit:10.43299961;stroke-opacity:1;stroke-dasharray:none;stroke-dashoffset:0" />
    <path
       id="path3155"
       d="m 294.95023,176.21704 -0.18242,-0.26241 -0.16592,-0.25341 -0.15901,-0.25821 -0.15421,-0.2513 -0.14941,-0.2444 -0.1425,-0.24919 -0.126,-0.24019 -0.126,-0.24019 -0.11429,-0.23807 -0.10949,-0.23118 -0.10469,-0.22427 -0.0909,-0.23387 -0.17426,-0.44222 -0.14124,-0.42421 -0.11784,-0.41999 -0.0965,-0.40408 -0.0683,-0.39296 -0.0539,-0.37224 -0.0236,-0.37283 -0.009,-0.35211 0.0121,-0.3362 0.0286,-0.32719 0.0382,-0.31338 0.0616,-0.30916 0.076,-0.28845 0.0856,-0.27465 0.10214,-0.26562 0.11656,-0.24491 0.12825,-0.2428 0.13095,-0.22419 0.13576,-0.2173 0.15016,-0.19656 0.15495,-0.18967 0.16456,-0.17585 0.16245,-0.16415 0.16514,-0.14553 0.16995,-0.13862 0.16784,-0.12692 c 0.30386,-0.21123 2.49626,-1.68411 4.56888,-1.28119 -1.33676,1.08292 -0.82863,2.2559 -0.51659,2.70477 0.62408,0.89774 1.71875,1.16106 2.69246,0.48417 0.88394,-0.61448 1.16165,-1.68844 0.45116,-2.71049 -1.62741,-2.34105 -5.16911,-1.86611 -7.82782,-0.0179 -4.29536,2.986 -4.88715,8.89787 -1.92036,13.16562 3.05801,4.39895 8.84096,5.43887 12.83247,2.6641 4.60613,-3.20203 2.82856,-8.10186 2.59813,-8.43334 -0.24004,-0.34528 -0.58533,-0.10526 -0.682,-0.038 -0.31076,0.21602 -0.2817,0.39043 -0.20884,0.65732 1.22347,3.88174 -0.71904,5.8467 -1.99661,6.73481 -1.82312,1.26737 -5.88206,1.89703 -9.73218,-3.64138 z"
       inkscape:connector-curvature="0"
       style="font-style:normal;font-variant:normal;font-weight:normal;font-stretch:normal;letter-spacing:normal;word-spacing:normal;text-anchor:start;fill:#000000;stroke:#000000;stroke-width:0;stroke-linecap:butt;stroke-linejoin:miter;stroke-miterlimit:10.43299961;stroke-opacity:1;stroke-dasharray:none;stroke-dashoffset:0" />
    <path
       id="path3157"
       d="m 309.67889,165.31237 -0.46955,-0.7491 c -3.35489,-5.26807 -1.06358,-8.13105 0.1173,-8.95196 3.53574,-2.45793 7.10706,1.9427 8.03838,3.28241 l -8.15568,5.66955 0.46955,0.7491 9.60587,-6.67768 c 0.75272,-0.52327 0.84941,-0.59048 0.34534,-1.31559 -2.36192,-3.39762 -6.53827,-5.44171 -10.82673,-2.46052 -3.99842,2.77957 -4.71023,8.51881 -1.71462,12.82798 3.20202,4.60613 9.13934,5.42607 13.09632,2.67529 4.19869,-2.91879 3.08391,-7.8082 2.63266,-8.45734 -0.24004,-0.34528 -0.56216,-0.23402 -0.73481,-0.114 -0.31076,0.21603 -0.2358,0.4712 -0.11283,0.79544 1.26113,4.37796 -1.83264,6.52864 -2.17792,6.76867 -1.72644,1.20016 -3.81597,1.12653 -5.48655,0.40315 -2.18321,-0.93037 -3.76742,-3.20926 -4.62673,-4.4454 z"
       inkscape:connector-curvature="0"
       style="font-style:normal;font-variant:normal;font-weight:normal;font-stretch:normal;letter-spacing:normal;word-spacing:normal;text-anchor:start;fill:#000000;stroke:#000000;stroke-width:0;stroke-linecap:butt;stroke-linejoin:miter;stroke-miterlimit:10.43299961;stroke-opacity:1;stroke-dasharray:none;stroke-dashoffset:0" />
    <g
       id="g3546"
       transform="matrix(0.65561275,0,0,0.65561275,489.74774,-154.83816)">
      <g
         word-spacing="normal"
         letter-spacing="normal"
         font-size-adjust="none"
         font-stretch="normal"
         font-weight="normal"
         font-variant="normal"
         font-style="normal"
         stroke-miterlimit="10.433"
         xml:space="preserve"
         transform="matrix(1.0629921,0,0,-1.0629921,-186.02362,789.27165)"
         id="g3548"
         style="font-style:normal;font-variant:normal;font-weight:normal;font-stretch:normal;letter-spacing:normal;word-spacing:normal;text-anchor:start;fill:none;stroke:#000000;stroke-linecap:butt;stroke-linejoin:miter;stroke-miterlimit:10.43299961;stroke-opacity:1;stroke-dasharray:none;stroke-dashoffset:0"><path
           id="path3550"
           d="m 461,423.34 v -13.36 c 0,-2.23 -0.54,-2.23 -3.89,-2.23 v -1.55 c 1.75,0.05 4.28,0.16 5.63,0.16 1.3,0 3.89,-0.11 5.58,-0.16 v 1.55 c -3.33,0 -3.88,0 -3.88,2.23 v 9.17 c 0,5.19 3.53,7.97 6.72,7.97 3.14,0 3.69,-2.69 3.69,-5.53 v -11.61 c 0,-2.23 -0.55,-2.23 -3.89,-2.23 v -1.55 c 1.75,0.05 4.29,0.16 5.64,0.16 1.29,0 3.87,-0.11 5.58,-0.16 v 1.55 c -3.35,0 -3.89,0 -3.89,2.23 v 9.17 c 0,5.19 3.54,7.97 6.73,7.97 3.14,0 3.69,-2.69 3.69,-5.53 v -11.61 c 0,-2.23 -0.55,-2.23 -3.89,-2.23 v -1.55 c 1.73,0.05 4.28,0.16 5.62,0.16 1.3,0 3.89,-0.11 5.58,-0.16 v 1.55 c -2.58,0 -3.83,0 -3.88,1.5 v 9.51 c 0,4.28 0,5.83 -1.54,7.61 -0.71,0.86 -2.35,1.84 -5.24,1.84 -4.18,0 -6.37,-2.98 -7.22,-4.87 -0.7,4.33 -4.39,4.87 -6.62,4.87 -3.64,0 -5.98,-2.14 -7.38,-5.21 v 5.21 l -7.03,-0.54 v -1.55 c 3.49,0 3.89,-0.34 3.89,-2.78 z"
           inkscape:connector-curvature="0"
           style="fill:#000000;stroke-width:0" /><path
           id="path3552"
           d="m 520.51,416.86 -0.02,0.59 -0.04,0.59 -0.07,0.58 -0.1,0.57 -0.12,0.56 -0.15,0.55 -0.18,0.54 -0.2,0.53 -0.22,0.51 -0.24,0.5 -0.27,0.49 -0.29,0.47 -0.31,0.46 -0.32,0.44 -0.35,0.43 -0.37,0.4 -0.38,0.39 -0.4,0.37 -0.42,0.35 -0.43,0.32 -0.45,0.31 -0.46,0.28 -0.48,0.26 -0.48,0.24 -0.5,0.21 -0.51,0.18 -0.52,0.16 -0.53,0.13 -0.54,0.11 -0.55,0.07 -0.56,0.05 -0.56,0.01 -0.04,-1.09 c 2.18,0 4.32,-1.1 5.62,-3.24 1.3,-2.14 1.3,-5.03 1.3,-6.92 0,-1.8 0,-4.48 -1.1,-6.67 -1.09,-2.25 -3.28,-3.69 -5.78,-3.69 h 0 c -2.14,0 -4.33,1.05 -5.67,3.33 -1.25,2.2 -1.25,5.23 -1.25,7.03 0,1.94 0,4.63 1.19,6.83 1.36,2.28 3.69,3.33 5.69,3.33 l 0.04,1.09 c -6.22,0 -11.06,-5.42 -11.06,-11.65 0,-6.43 5.19,-11.21 11.02,-11.21 6.03,0 11.06,4.88 11.06,11.21 z"
           inkscape:connector-curvature="0"
           style="fill:#000000;stroke-width:0" /><path
           id="path3554"
           d="m 542.38,408.93 v -3.28 l 7.31,0.55 v 1.55 c -3.49,0 -3.88,0.34 -3.88,2.78 v 30.25 l -7.17,-0.55 v -1.55 c 3.48,0 3.88,-0.34 3.88,-2.79 v -10.75 c -1.44,1.78 -3.58,3.07 -6.29,3.07 l 0.21,-1.09 c 1.75,0 3.84,-0.75 5.39,-2.98 0.55,-0.85 0.55,-0.96 0.55,-1.85 h 0 v -10.22 c 0,-0.89 0,-1 -0.55,-1.84 -1.5,-2.39 -3.75,-3.48 -5.89,-3.48 -2.24,0 -4.03,1.29 -5.22,3.18 -1.3,2.05 -1.45,4.89 -1.45,6.93 0,1.84 0.09,4.84 1.54,7.07 1.05,1.55 2.94,3.19 5.63,3.19 l -0.21,1.09 c -5.87,0 -11.11,-4.87 -11.11,-11.29 0,-6.33 4.9,-11.27 10.57,-11.27 3.19,0 5.43,1.69 6.69,3.28 z"
           inkscape:connector-curvature="0"
           style="fill:#000000;stroke-width:0" /><path
           id="path3556"
           d="m 556.69,417.71 0.04,1.05 c 0.3,7.42 4.49,8.66 6.19,8.66 5.13,0 5.63,-6.72 5.63,-8.66 h -11.82 l -0.04,-1.05 h 13.9 c 1.1,0 1.24,0 1.24,1.05 0,4.92 -2.69,9.75 -8.91,9.75 -5.78,0 -10.37,-5.12 -10.37,-11.36 0,-6.67 5.23,-11.5 10.97,-11.5 6.07,0 8.31,5.53 8.31,6.47 0,0.5 -0.39,0.61 -0.64,0.61 -0.46,0 -0.55,-0.3 -0.66,-0.7 -1.73,-5.13 -6.22,-5.13 -6.72,-5.13 -2.5,0 -4.48,1.49 -5.62,3.33 -1.5,2.39 -1.5,5.69 -1.5,7.48 z"
           inkscape:connector-curvature="0"
           style="fill:#000000;stroke-width:0" /><path
           id="path3558"
           d="m 582.05,440.78 -7.17,-0.55 v -1.55 c 3.48,0 3.89,-0.34 3.89,-2.79 v -25.91 c 0,-2.23 -0.55,-2.23 -3.89,-2.23 v -1.55 c 1.64,0.05 4.28,0.16 5.53,0.16 1.25,0 3.68,-0.11 5.53,-0.16 v 1.55 c -3.35,0 -3.89,0 -3.89,2.23 z"
           inkscape:connector-curvature="0"
           style="fill:#000000;stroke-width:0" /><path
           id="path3560"
           d="m 610.5,416.86 -0.01,0.59 -0.05,0.59 -0.07,0.58 -0.1,0.57 -0.12,0.56 -0.15,0.55 -0.17,0.54 -0.2,0.53 -0.23,0.51 -0.24,0.5 -0.27,0.49 -0.29,0.47 -0.3,0.46 -0.33,0.44 -0.35,0.43 -0.37,0.4 -0.38,0.39 -0.4,0.37 -0.42,0.35 -0.43,0.32 -0.45,0.31 -0.46,0.28 -0.47,0.26 -0.49,0.24 -0.5,0.21 -0.51,0.18 -0.52,0.16 -0.53,0.13 -0.54,0.11 -0.55,0.07 -0.55,0.05 -0.57,0.01 -0.04,-1.09 c 2.18,0 4.33,-1.1 5.62,-3.24 1.3,-2.14 1.3,-5.03 1.3,-6.92 0,-1.8 0,-4.48 -1.09,-6.67 -1.1,-2.25 -3.29,-3.69 -5.79,-3.69 h 0 c -2.14,0 -4.32,1.05 -5.67,3.33 -1.25,2.2 -1.25,5.23 -1.25,7.03 0,1.94 0,4.63 1.19,6.83 1.36,2.28 3.69,3.33 5.69,3.33 l 0.04,1.09 c -6.21,0 -11.06,-5.42 -11.06,-11.65 0,-6.43 5.19,-11.21 11.02,-11.21 6.03,0 11.06,4.88 11.06,11.21 z"
           inkscape:connector-curvature="0"
           style="fill:#000000;stroke-width:0" /><path
           id="path3562"
           d="m 647.78,436.43 0.04,0.16 0.04,0.16 0.04,0.14 0.05,0.14 0.04,0.14 0.05,0.12 0.05,0.12 0.06,0.11 0.06,0.11 0.06,0.1 0.07,0.1 0.08,0.08 0.09,0.09 0.1,0.08 0.1,0.07 0.11,0.07 0.13,0.06 0.13,0.05 0.15,0.06 0.16,0.04 0.18,0.05 0.19,0.03 0.09,0.02 0.11,0.02 0.1,0.01 0.12,0.02 0.11,0.01 0.12,0.01 0.12,0.02 0.13,0.01 0.13,0.01 0.14,0 0.14,0.01 0.15,0.01 0.15,0.01 0.15,0 0.16,0 0.17,0.01 0.17,0 0.17,0 0.19,0 0.18,0 h 0.5 c 0.85,0 1.39,0 1.39,0.96 0,0.59 -0.54,0.59 -0.75,0.59 -2.23,0 -4.58,-0.16 -6.87,-0.16 -2.05,0 -4.13,0.16 -6.13,0.16 -0.29,0 -0.95,0 -0.95,-0.95 0,-0.6 0.41,-0.6 1.36,-0.6 1.53,0 2.87,0 2.87,-0.84 0,-0.16 0,-0.25 -0.18,-0.95 l -6.74,-27.05 c -0.39,-1.7 -0.68,-2.09 -4.08,-2.09 -0.79,0 -1.34,0 -1.34,-0.96 0,-0.59 0.44,-0.59 1.24,-0.59 h 21.32 c 1.1,0 1.14,0.05 1.46,0.89 l 3.78,10.72 c 0,0.05 0.2,0.59 0.2,0.64 0,0.61 -0.61,0.61 -0.75,0.61 -0.59,0 -0.66,-0.16 -1,-1.1 -1.59,-4.43 -3.73,-10.21 -11.5,-10.21 h -4.05 c -1.54,0 -1.54,0.14 -1.54,0.5 0,0.29 0.15,0.79 0.2,1.09 z"
           inkscape:connector-curvature="0"
           style="fill:#000000;stroke-width:0" /><path
           id="path3564"
           d="m 674.62,409.14 0.05,-0.23 0.06,-0.21 0.07,-0.21 0.08,-0.2 0.08,-0.2 0.09,-0.18 0.1,-0.18 0.1,-0.17 0.11,-0.16 0.11,-0.15 0.11,-0.15 0.13,-0.14 0.12,-0.13 0.13,-0.12 0.14,-0.12 0.13,-0.11 0.15,-0.1 0.14,-0.1 0.15,-0.09 0.15,-0.08 0.15,-0.07 0.16,-0.07 0.15,-0.06 0.16,-0.06 0.16,-0.04 0.16,-0.05 0.17,-0.03 0.16,-0.03 0.16,-0.02 0.17,-0.02 0.16,0 0.16,-0.01 c 1.85,0 2.89,1.25 3.64,2.78 0.91,1.91 1.5,4.8 1.5,4.89 0,0.5 -0.4,0.5 -0.75,0.5 -0.59,0 -0.64,-0.04 -0.95,-1.14 -0.69,-2.79 -1.64,-5.93 -3.33,-5.93 -1.3,0 -1.3,1.34 -1.3,2.04 0,0.35 0,1.14 0.35,2.53 l 3.39,13.57 c 0.2,0.68 0.2,0.79 0.2,1.04 0,1.05 -0.84,1.3 -1.34,1.3 -1.6,0 -1.95,-1.7 -2,-1.95 -0.94,2.14 -2.53,2.93 -4.13,2.93 v -1.09 c 2.19,0 3.44,-2.59 3.44,-4.69 0,-0.09 -0.06,-0.34 -0.16,-0.64 h 0 l -2.34,-9.42 c -0.39,-1.59 -3.48,-5.62 -6.22,-5.62 -2.34,0 -2.75,2.93 -2.75,4.43 0,2.49 1.55,8.32 2.44,10.41 1.25,3.05 3.55,5.53 5.59,5.53 v 1.09 c -5.53,0 -11.42,-7.56 -11.42,-14.84 0,-4.23 2.3,-7.72 6.03,-7.72 1.8,0 3.99,1.05 5.99,3.49 z"
           inkscape:connector-curvature="0"
           style="fill:#000000;stroke-width:0" /><path
           id="path3566"
           d="m 699.51,408.84 -1.05,-4.19 c -0.59,-2.48 -0.91,-3.53 -2.3,-5.23 -1.98,-2.35 -3.98,-2.35 -4.73,-2.35 -0.64,0 -2.19,0 -3.53,0.57 1,0.39 1.59,1.43 1.59,2.28 0,0.65 -0.45,1.59 -1.75,1.59 -0.89,0 -2.44,-0.69 -2.44,-2.64 0,-1.98 1.85,-2.89 6.04,-2.89 5.23,0 9.01,3.3 9.96,7.08 l 5.43,21.83 c 0.2,0.75 0.2,0.84 0.2,1.04 0,1.05 -0.84,1.3 -1.34,1.3 -0.61,0 -1.75,-0.41 -1.96,-1.84 -0.68,1.43 -2.03,2.82 -4.17,2.82 v -1.09 c 2.99,0 3.44,-4.19 3.44,-4.58 l -0.16,-0.7 -2.23,-9.06 c -0.41,-1.6 -3.46,-5.49 -6.19,-5.49 -2.69,0 -2.78,3.78 -2.78,4.35 0,2.39 1.48,8.22 2.53,10.56 1.25,2.69 3.44,4.92 5.39,4.92 v 1.09 c -5.59,0 -11.31,-7.37 -11.31,-14.39 0,-4.23 2.34,-7.62 6.08,-7.62 2.53,0 4.67,2.05 5.28,2.64 z"
           inkscape:connector-curvature="0"
           style="fill:#000000;stroke-width:0" /><path
           id="path3568"
           d="m 718.44,420.54 0,0.01 0.01,0.03 0.01,0.02 0.02,0.04 0.01,0.05 0.02,0.05 0.02,0.06 0.03,0.07 0.03,0.08 0.03,0.08 0.04,0.08 0.04,0.1 0.08,0.2 0.1,0.23 0.12,0.24 0.12,0.26 0.14,0.27 0.15,0.28 0.16,0.29 0.18,0.3 0.19,0.31 0.2,0.3 0.21,0.3 0.22,0.31 0.24,0.29 0.25,0.29 0.26,0.28 0.28,0.27 0.29,0.25 0.3,0.24 0.31,0.21 0.32,0.2 0.17,0.09 0.17,0.08 0.17,0.08 0.18,0.06 0.17,0.07 0.19,0.05 0.18,0.05 0.19,0.04 0.19,0.03 0.19,0.02 0.2,0.02 0.2,0 c 0.23,0 1.64,0 2.64,-0.69 -1.75,-0.56 -1.91,-2.15 -1.91,-2.39 0,-0.65 0.46,-1.61 1.75,-1.61 0.9,0 2.44,0.71 2.44,2.64 0,2.6 -3.23,3.14 -4.87,3.14 -3.44,0 -5.24,-2.48 -6.04,-3.57 -0.54,2.64 -2.5,3.57 -4.13,3.57 -1.8,0 -2.79,-1.14 -3.58,-2.64 -0.96,-1.98 -1.6,-4.92 -1.6,-5.03 0,-0.5 0.5,-0.5 0.74,-0.5 0.65,0 0.7,0.07 0.95,1.16 0.89,3.48 1.84,5.92 3.39,5.92 1.3,0 1.3,-1.44 1.3,-1.98 0,-0.8 -0.16,-1.75 -0.36,-2.55 L 712,407.64 c -0.09,-0.3 -0.14,-0.55 -0.14,-0.69 0,-0.55 0.39,-1.3 1.39,-1.3 1.5,0 1.85,1.44 1.94,1.85 z"
           inkscape:connector-curvature="0"
           style="fill:#000000;stroke-width:0" /><path
           id="path3570"
           d="m 741.45,409.14 0.05,-0.23 0.07,-0.21 0.07,-0.21 0.07,-0.2 0.09,-0.2 0.08,-0.18 0.1,-0.18 0.1,-0.17 0.11,-0.16 0.11,-0.15 0.12,-0.15 0.12,-0.14 0.12,-0.13 0.13,-0.12 0.14,-0.12 0.14,-0.11 0.14,-0.1 0.14,-0.1 0.15,-0.09 0.15,-0.08 0.15,-0.07 0.16,-0.07 0.16,-0.06 0.15,-0.06 0.16,-0.04 0.17,-0.05 0.16,-0.03 0.16,-0.03 0.16,-0.02 0.17,-0.02 0.16,0 0.16,-0.01 c 1.85,0 2.9,1.25 3.65,2.78 0.9,1.91 1.5,4.8 1.5,4.89 0,0.5 -0.41,0.5 -0.75,0.5 -0.6,0 -0.65,-0.04 -0.96,-1.14 -0.69,-2.79 -1.64,-5.93 -3.33,-5.93 -1.29,0 -1.29,1.34 -1.29,2.04 0,0.35 0,1.14 0.34,2.53 l 3.39,13.57 c 0.2,0.68 0.2,0.79 0.2,1.04 0,1.05 -0.84,1.3 -1.34,1.3 -1.59,0 -1.95,-1.7 -2,-1.95 -0.94,2.14 -2.53,2.93 -4.13,2.93 v -1.09 c 2.19,0 3.44,-2.59 3.44,-4.69 0,-0.09 -0.06,-0.34 -0.15,-0.64 h 0 l -2.35,-9.42 c -0.39,-1.59 -3.48,-5.62 -6.22,-5.62 -2.34,0 -2.75,2.93 -2.75,4.43 0,2.49 1.55,8.32 2.44,10.41 1.25,3.05 3.55,5.53 5.59,5.53 v 1.09 c -5.53,0 -11.42,-7.56 -11.42,-14.84 0,-4.23 2.3,-7.72 6.04,-7.72 1.79,0 3.98,1.05 5.98,3.49 z"
           inkscape:connector-curvature="0"
           style="fill:#000000;stroke-width:0" /><path
           id="path3572"
           d="m 760.95,414.92 0.09,0.41 0.1,0.4 0.11,0.4 0.1,0.41 0.1,0.4 0.1,0.4 0.1,0.4 0.1,0.41 c 0.65,2.55 0.65,2.6 1.5,4.05 0.7,1.19 2.93,4.92 6.73,4.92 2.19,0 2.28,-2.23 2.28,-3.28 0,-3.09 -2.19,-9.02 -2.89,-11.02 -0.64,-1.68 -0.8,-2.14 -0.8,-3.18 0,-2.19 1.41,-3.99 3.8,-3.99 4.63,0 6.33,7.42 6.33,7.67 0,0.5 -0.41,0.5 -0.75,0.5 -0.66,0 -0.66,-0.11 -0.86,-0.84 -0.39,-1.34 -1.74,-6.23 -4.62,-6.23 -1.05,0 -1.1,0.75 -1.1,1.45 0,1.23 0.5,2.53 0.89,3.73 1,2.64 3.05,8.22 3.05,11.11 0,4.08 -2.75,5.17 -5.19,5.17 -4.08,0 -6.47,-2.98 -7.12,-3.93 -0.35,2.45 -2.05,3.93 -4.19,3.93 -1.8,0 -2.78,-1.14 -3.58,-2.64 -0.95,-1.98 -1.59,-4.92 -1.59,-5.03 0,-0.5 0.5,-0.5 0.73,-0.5 0.66,0 0.7,0.07 0.95,1.16 0.9,3.48 1.85,5.92 3.4,5.92 1.29,0 1.29,-1.44 1.29,-1.98 0,-0.8 -0.16,-1.75 -0.36,-2.55 l -3.73,-14.95 c -0.1,-0.3 -0.14,-0.55 -0.14,-0.69 0,-0.55 0.39,-1.3 1.39,-1.3 0.59,0 1.45,0.35 1.8,1.3 z"
           inkscape:connector-curvature="0"
           style="fill:#000000;stroke-width:0" /><path
           id="path3574"
           d="m 794.3,408.84 -1.05,-4.19 c -0.59,-2.48 -0.91,-3.53 -2.3,-5.23 -1.98,-2.35 -3.98,-2.35 -4.73,-2.35 -0.64,0 -2.19,0 -3.53,0.57 1,0.39 1.59,1.43 1.59,2.28 0,0.65 -0.45,1.59 -1.75,1.59 -0.89,0 -2.44,-0.69 -2.44,-2.64 0,-1.98 1.85,-2.89 6.03,-2.89 5.24,0 9.02,3.3 9.97,7.08 l 5.43,21.83 c 0.2,0.75 0.2,0.84 0.2,1.04 0,1.05 -0.84,1.3 -1.34,1.3 -0.61,0 -1.76,-0.41 -1.96,-1.84 -0.69,1.43 -2.03,2.82 -4.17,2.82 v -1.09 c 2.98,0 3.44,-4.19 3.44,-4.58 l -0.16,-0.7 -2.23,-9.06 c -0.41,-1.6 -3.46,-5.49 -6.19,-5.49 -2.69,0 -2.78,3.78 -2.78,4.35 0,2.39 1.48,8.22 2.53,10.56 1.25,2.69 3.44,4.92 5.39,4.92 v 1.09 c -5.59,0 -11.31,-7.37 -11.31,-14.39 0,-4.23 2.34,-7.62 6.08,-7.62 2.53,0 4.67,2.05 5.28,2.64 z"
           inkscape:connector-curvature="0"
           style="fill:#000000;stroke-width:0" /><path
           id="path3576"
           d="m 816.85,413.32 0,0.03 0,0.02 0,0.02 0,0.02 0,0.02 0,0.02 -0.01,0.02 0,0.02 -0.01,0.02 0,0.01 -0.01,0.02 0,0.02 -0.01,0.01 -0.01,0.02 0,0.01 -0.01,0.01 -0.01,0.02 -0.01,0.01 -0.02,0.02 -0.02,0.02 -0.02,0.02 -0.02,0.02 -0.02,0.02 -0.03,0.01 -0.02,0.01 -0.03,0.01 -0.03,0.01 -0.03,0.01 -0.03,0.01 -0.03,0 -0.03,0.01 -0.03,0 -0.03,0.01 -0.03,0 -0.03,0 -0.07,0 -0.06,0 -0.07,0 c -0.65,0 -0.65,-0.11 -0.86,-0.84 -0.39,-1.45 -1.73,-6.23 -4.62,-6.23 -0.41,0 -1.1,0.04 -1.1,1.39 0,1.29 0.64,2.93 1.3,4.78 l 3.19,8.53 c 0.5,1.44 0.59,1.84 0.59,2.78 0,2.75 -1.89,3.98 -3.73,3.98 -4.69,0 -6.38,-7.42 -6.38,-7.67 0,-0.5 0.5,-0.5 0.74,-0.5 0.65,0 0.7,0.11 0.9,0.8 0.45,1.66 1.74,6.28 4.63,6.28 0.54,0 1.11,-0.25 1.11,-1.39 0,-1.2 -0.57,-2.64 -0.91,-3.59 l -1.48,-4.13 c -0.66,-1.65 -1.25,-3.3 -1.85,-4.94 -0.7,-1.89 -0.9,-2.43 -0.9,-3.43 0,-1.94 1.2,-3.99 3.78,-3.99 4.69,0 6.32,7.47 6.32,7.67 z"
           inkscape:connector-curvature="0"
           style="fill:#000000;stroke-width:0" /><path
           id="path3578"
           d="m 816.6,437.23 0,0.06 0,0.05 0,0.06 -0.01,0.05 0,0.06 -0.01,0.05 -0.02,0.1 -0.02,0.1 -0.03,0.09 -0.03,0.08 -0.04,0.09 -0.04,0.07 -0.04,0.08 -0.05,0.07 -0.05,0.06 -0.06,0.07 -0.05,0.05 -0.06,0.06 -0.06,0.05 -0.07,0.04 -0.06,0.05 -0.07,0.04 -0.07,0.03 -0.07,0.04 -0.07,0.02 -0.07,0.03 -0.07,0.02 -0.07,0.02 -0.08,0.02 -0.07,0.02 -0.07,0.01 -0.07,0.01 -0.07,0 -0.07,0.01 -0.06,0 c -1.05,0 -2.39,-1 -2.39,-2.39 0,-1.25 1,-1.66 1.69,-1.66 1,0 2.38,0.95 2.38,2.39 z"
           inkscape:connector-curvature="0"
           style="fill:#000000;stroke-width:0" /><path
           id="path3580"
           d="m 833,409.14 0.06,-0.23 0.06,-0.21 0.07,-0.21 0.07,-0.2 0.09,-0.2 0.09,-0.18 0.09,-0.18 0.1,-0.17 0.11,-0.16 0.11,-0.15 0.12,-0.15 0.12,-0.14 0.12,-0.13 0.13,-0.12 0.14,-0.12 0.14,-0.11 0.14,-0.1 0.14,-0.1 0.15,-0.09 0.15,-0.08 0.15,-0.07 0.16,-0.07 0.16,-0.06 0.16,-0.06 0.16,-0.04 0.16,-0.05 0.16,-0.03 0.16,-0.03 0.17,-0.02 0.16,-0.02 0.16,0 0.16,-0.01 c 1.85,0 2.9,1.25 3.65,2.78 0.9,1.91 1.5,4.8 1.5,4.89 0,0.5 -0.41,0.5 -0.75,0.5 -0.6,0 -0.64,-0.04 -0.96,-1.14 -0.68,-2.79 -1.64,-5.93 -3.33,-5.93 -1.29,0 -1.29,1.34 -1.29,2.04 0,0.35 0,1.14 0.34,2.53 l 3.39,13.57 c 0.21,0.68 0.21,0.79 0.21,1.04 0,1.05 -0.85,1.3 -1.35,1.3 -1.59,0 -1.95,-1.7 -2,-1.95 -0.94,2.14 -2.53,2.93 -4.12,2.93 v -1.09 c 2.18,0 3.43,-2.59 3.43,-4.69 0,-0.09 -0.06,-0.34 -0.15,-0.64 h 0 l -2.35,-9.42 c -0.39,-1.59 -3.48,-5.62 -6.22,-5.62 -2.34,0 -2.74,2.93 -2.74,4.43 0,2.49 1.54,8.32 2.43,10.41 1.25,3.05 3.55,5.53 5.6,5.53 v 1.09 c -5.53,0 -11.43,-7.56 -11.43,-14.84 0,-4.23 2.3,-7.72 6.04,-7.72 1.79,0 3.98,1.05 5.98,3.49 z"
           inkscape:connector-curvature="0"
           style="fill:#000000;stroke-width:0" /><path
           id="path3582"
           d="m 852.5,414.92 0.1,0.41 0.09,0.4 0.11,0.4 0.1,0.41 0.1,0.4 0.1,0.4 0.1,0.4 0.1,0.41 c 0.65,2.55 0.65,2.6 1.5,4.05 0.7,1.19 2.93,4.92 6.73,4.92 2.19,0 2.28,-2.23 2.28,-3.28 0,-3.09 -2.19,-9.02 -2.89,-11.02 -0.64,-1.68 -0.8,-2.14 -0.8,-3.18 0,-2.19 1.41,-3.99 3.8,-3.99 4.63,0 6.33,7.42 6.33,7.67 0,0.5 -0.41,0.5 -0.75,0.5 -0.66,0 -0.66,-0.11 -0.86,-0.84 -0.39,-1.34 -1.73,-6.23 -4.62,-6.23 -1.05,0 -1.1,0.75 -1.1,1.45 0,1.23 0.5,2.53 0.89,3.73 1,2.64 3.05,8.22 3.05,11.11 0,4.08 -2.75,5.17 -5.19,5.17 -4.08,0 -6.47,-2.98 -7.12,-3.93 -0.35,2.45 -2.05,3.93 -4.19,3.93 -1.8,0 -2.78,-1.14 -3.58,-2.64 -0.95,-1.98 -1.59,-4.92 -1.59,-5.03 0,-0.5 0.5,-0.5 0.73,-0.5 0.66,0 0.7,0.07 0.96,1.16 0.89,3.48 1.84,5.92 3.39,5.92 1.29,0 1.29,-1.44 1.29,-1.98 0,-0.8 -0.15,-1.75 -0.36,-2.55 l -3.73,-14.95 c -0.09,-0.3 -0.14,-0.55 -0.14,-0.69 0,-0.55 0.39,-1.3 1.39,-1.3 0.59,0 1.45,0.35 1.8,1.3 z"
           inkscape:connector-curvature="0"
           style="fill:#000000;stroke-width:0" /><path
           id="path3584"
           d="m 894.36,420.04 -0.01,0.44 -0.02,0.43 -0.04,0.43 -0.06,0.41 -0.08,0.41 -0.09,0.4 -0.1,0.38 -0.12,0.38 -0.14,0.36 -0.15,0.36 -0.17,0.34 -0.18,0.33 -0.19,0.32 -0.21,0.3 -0.22,0.3 -0.23,0.27 -0.24,0.27 -0.26,0.25 -0.27,0.24 -0.29,0.22 -0.29,0.2 -0.3,0.19 -0.32,0.18 -0.33,0.15 -0.34,0.14 -0.34,0.13 -0.36,0.1 -0.37,0.09 -0.37,0.07 -0.39,0.05 -0.39,0.02 -0.41,0.01 c -6.17,0 -12.59,-7.06 -12.59,-14.34 0,-5.12 3.14,-8.22 7.26,-8.22 v 1.1 c -1.93,0 -3.78,1.54 -3.78,5.12 0,2.5 1.3,8.03 2.89,10.72 1.85,3.05 4.24,4.53 6.17,4.53 2.46,0 3.85,-2.19 3.85,-5.12 0,-2.14 -1.1,-7.29 -2.69,-10.27 -1.45,-2.73 -3.98,-4.98 -6.44,-4.98 h 0 v -1.1 c 6.19,0 12.61,7.08 12.61,14.39 z"
           inkscape:connector-curvature="0"
           style="fill:#000000;stroke-width:0" /></g>    </g>
  </g>
</svg>
