<?xml version="1.0" encoding="UTF-8" standalone="no"?>
<!-- Created with Inkscape (http://www.inkscape.org/) -->

<svg
   xmlns:dc="http://purl.org/dc/elements/1.1/"
   xmlns:cc="http://creativecommons.org/ns#"
   xmlns:rdf="http://www.w3.org/1999/02/22-rdf-syntax-ns#"
   xmlns:svg="http://www.w3.org/2000/svg"
   xmlns="http://www.w3.org/2000/svg"
   xmlns:xlink="http://www.w3.org/1999/xlink"
   xmlns:sodipodi="http://sodipodi.sourceforge.net/DTD/sodipodi-0.dtd"
   xmlns:inkscape="http://www.inkscape.org/namespaces/inkscape"
   width="1052.3622"
   height="744.09448"
   id="svg2"
   version="1.1"
   inkscape:version="0.48.2 r9819"
   sodipodi:docname="interface1.svg">
  <sodipodi:namedview
     id="base"
     pagecolor="#ffffff"
     bordercolor="#666666"
     borderopacity="1.0"
     inkscape:pageopacity="0.0"
     inkscape:pageshadow="2"
     inkscape:zoom="0.69883597"
     inkscape:cx="598.39451"
     inkscape:cy="406.48049"
     inkscape:document-units="px"
     inkscape:current-layer="layer1"
     showgrid="false"
     inkscape:window-width="1239"
     inkscape:window-height="810"
     inkscape:window-x="477"
     inkscape:window-y="57"
     inkscape:window-maximized="0" />
  <defs
     id="defs4">
    <linearGradient
       id="linearGradient5272">
      <stop
         style="stop-color:#b3b3b3;stop-opacity:1;"
         offset="0"
         id="stop5274" />
      <stop
         style="stop-color:#4c4c4c;stop-opacity:0;"
         offset="1"
         id="stop5276" />
    </linearGradient>
    <linearGradient
       id="linearGradient5266">
      <stop
         style="stop-color:#4c4c4c;stop-opacity:1;"
         offset="0"
         id="stop5280" />
      <stop
         id="stop5270"
         offset="1"
         style="stop-color:#c7c7c7;stop-opacity:1;" />
    </linearGradient>
    <linearGradient
       id="linearGradient3814">
      <stop
         style="stop-color:#b3b3b3;stop-opacity:1;"
         offset="0"
         id="stop3816" />
      <stop
         style="stop-color:#4c4c4c;stop-opacity:0;"
         offset="1"
         id="stop3818" />
    </linearGradient>
    <marker
       inkscape:stockid="Arrow2Lend"
       orient="auto"
       refY="0.0"
       refX="0.0"
       id="Arrow2Lend"
       style="overflow:visible;">
      <path
         id="path4085"
         style="font-size:12.0;fill-rule:evenodd;stroke-width:0.62500000;stroke-linejoin:round;"
         d="M 8.7185878,4.0337352 L -2.2072895,0.016013256 L 8.7185884,-4.0017078 C 6.9730900,-1.6296469 6.9831476,1.6157441 8.7185878,4.0337352 z "
         transform="scale(1.1) rotate(180) translate(1,0)" />
    </marker>
    <marker
       inkscape:stockid="Arrow1Lend"
       orient="auto"
       refY="0.0"
       refX="0.0"
       id="Arrow1Lend"
       style="overflow:visible;">
      <path
         id="path4067"
         d="M 0.0,0.0 L 5.0,-5.0 L -12.5,0.0 L 5.0,5.0 L 0.0,0.0 z "
         style="fill-rule:evenodd;stroke:#000000;stroke-width:1.0pt;marker-start:none;"
         transform="scale(0.8) rotate(180) translate(12.5,0)" />
    </marker>
    <linearGradient
       inkscape:collect="always"
       xlink:href="#linearGradient5266"
       id="linearGradient5264"
       x1="750.24164"
       y1="345.12274"
       x2="625.33948"
       y2="399.5051"
       gradientUnits="userSpaceOnUse" />
    <marker
       inkscape:stockid="Arrow2Lend"
       orient="auto"
       refY="0"
       refX="0"
       id="Arrow2Lend-5"
       style="overflow:visible">
      <path
         inkscape:connector-curvature="0"
         id="path4085-4"
         style="font-size:12px;fill-rule:evenodd;stroke-width:0.625;stroke-linejoin:round"
         d="M 8.7185878,4.0337352 -2.2072895,0.01601326 8.7185884,-4.0017078 c -1.7454984,2.3720609 -1.7354408,5.6174519 -6e-7,8.035443 z"
         transform="matrix(-1.1,0,0,-1.1,-1.1,0)" />
    </marker>
    <marker
       inkscape:stockid="Arrow2Lend"
       orient="auto"
       refY="0"
       refX="0"
       id="Arrow2Lend-1"
       style="overflow:visible">
      <path
         inkscape:connector-curvature="0"
         id="path4085-9"
         style="font-size:12px;fill-rule:evenodd;stroke-width:0.625;stroke-linejoin:round"
         d="M 8.7185878,4.0337352 -2.2072895,0.01601326 8.7185884,-4.0017078 c -1.7454984,2.3720609 -1.7354408,5.6174519 -6e-7,8.035443 z"
         transform="matrix(-1.1,0,0,-1.1,-1.1,0)" />
    </marker>
  </defs>
  <metadata
     id="metadata7">
    <rdf:RDF>
      <cc:Work
         rdf:about="">
        <dc:format>image/svg+xml</dc:format>
        <dc:type
           rdf:resource="http://purl.org/dc/dcmitype/StillImage" />
        <dc:title />
      </cc:Work>
    </rdf:RDF>
  </metadata>
  <g
     inkscape:label="Layer 1"
     inkscape:groupmode="layer"
     id="layer1"
     transform="translate(0,-308.2677)">
    <path
       style="fill:url(#linearGradient5264);fill-opacity:1;fill-rule:nonzero;stroke:#000000;stroke-width:1px;stroke-linecap:butt;stroke-linejoin:miter;stroke-opacity:1"
       d="M 552.58473,325.31751 740.6633,240.2006 797.32607,422.33092 618.47677,510.60609 609.84022,406.26431 z"
       id="path3812"
       inkscape:connector-curvature="0"
       transform="translate(0,308.2677)"
       sodipodi:nodetypes="cccccc" />
    <path
       style="fill:none;stroke:#000000;stroke-width:2.8;stroke-linecap:butt;stroke-linejoin:miter;stroke-opacity:1;stroke-miterlimit:4;stroke-dasharray:none"
       d="M 363.87554,592.53591 411.09691,409.37419 461.18021,591.10496 592.82769,430.83846 549.89916,635.46444 740.21563,549.60738 607.1372,715.59769 798.88462,731.33815 617.15386,817.1952 760.24895,925.94748 577.08723,908.77606"
       id="path3757"
       inkscape:connector-curvature="0"
       sodipodi:nodetypes="ccccccccccc" />
    <path
       style="fill:none;stroke:#000000;stroke-width:2.8;stroke-linecap:butt;stroke-linejoin:miter;stroke-opacity:1;stroke-miterlimit:4;stroke-dasharray:none"
       d="m 363.87554,591.10496 97.30466,-1.43095 90.14991,44.35948 58.66899,81.5642 7.15476,100.16656 -37.20473,93.01181"
       id="path3795"
       inkscape:connector-curvature="0" />
    <path
       style="fill:none;stroke:#000000;stroke-width:2.8;stroke-linecap:butt;stroke-linejoin:miter;stroke-opacity:1;stroke-miterlimit:4;stroke-dasharray:none"
       d="m 409.66597,407.94324 181.73077,24.32617 147.38794,117.33797 57.23804,181.73077 -35.77377,191.74742"
       id="path3797"
       inkscape:connector-curvature="0" />
    <path
       sodipodi:type="arc"
       style="fill:#ffffff;fill-opacity:1;stroke:#000000;stroke-width:4.63398457;stroke-linejoin:miter;stroke-miterlimit:4;stroke-opacity:1;stroke-dasharray:none;stroke-dashoffset:0"
       id="path3799"
       sodipodi:cx="344.85916"
       sodipodi:cy="387.78769"
       sodipodi:rx="10.016657"
       sodipodi:ry="10.016657"
       d="m 354.87582,387.78769 c 0,5.53205 -4.48461,10.01666 -10.01666,10.01666 -5.53205,0 -10.01666,-4.48461 -10.01666,-10.01666 0,-5.53205 4.48461,-10.01666 10.01666,-10.01666 5.53205,0 10.01666,4.48461 10.01666,10.01666 z"
       transform="matrix(0.86318801,0,0,0.86318801,66.73385,254.04598)" />
    <path
       sodipodi:type="arc"
       style="fill:#ffffff;fill-opacity:1;stroke:#000000;stroke-width:4.63398457;stroke-linejoin:miter;stroke-miterlimit:4;stroke-opacity:1;stroke-dasharray:none;stroke-dashoffset:0"
       id="path3799-6"
       sodipodi:cx="344.85916"
       sodipodi:cy="387.78769"
       sodipodi:rx="10.016657"
       sodipodi:ry="10.016657"
       d="m 354.87582,387.78769 c 0,5.53205 -4.48461,10.01666 -10.01666,10.01666 -5.53205,0 -10.01666,-4.48461 -10.01666,-10.01666 0,-5.53205 4.48461,-10.01666 10.01666,-10.01666 5.53205,0 10.01666,4.48461 10.01666,10.01666 z"
       transform="matrix(0.86318801,0,0,0.86318801,163.50191,253.50937)" />
    <path
       sodipodi:type="arc"
       style="fill:#ffffff;fill-opacity:1;stroke:#000000;stroke-width:4.63398457;stroke-linejoin:miter;stroke-miterlimit:4;stroke-opacity:1;stroke-dasharray:none;stroke-dashoffset:0"
       id="path3799-67"
       sodipodi:cx="344.85916"
       sodipodi:cy="387.78769"
       sodipodi:rx="10.016657"
       sodipodi:ry="10.016657"
       d="m 354.87582,387.78769 c 0,5.53205 -4.48461,10.01666 -10.01666,10.01666 -5.53205,0 -10.01666,-4.48461 -10.01666,-10.01666 0,-5.53205 4.48461,-10.01666 10.01666,-10.01666 5.53205,0 10.01666,4.48461 10.01666,10.01666 z"
       transform="matrix(0.86318801,0,0,0.86318801,253.65182,299.2998)" />
    <path
       sodipodi:type="arc"
       style="fill:#ffffff;fill-opacity:1;stroke:#000000;stroke-width:4.63398457;stroke-linejoin:miter;stroke-miterlimit:4;stroke-opacity:1;stroke-dasharray:none;stroke-dashoffset:0"
       id="path3799-2"
       sodipodi:cx="344.85916"
       sodipodi:cy="387.78769"
       sodipodi:rx="10.016657"
       sodipodi:ry="10.016657"
       d="m 354.87582,387.78769 c 0,5.53205 -4.48461,10.01666 -10.01666,10.01666 -5.53205,0 -10.01666,-4.48461 -10.01666,-10.01666 0,-5.53205 4.48461,-10.01666 10.01666,-10.01666 5.53205,0 10.01666,4.48461 10.01666,10.01666 z"
       transform="matrix(0.86318801,0,0,0.86318801,312.32081,380.86401)" />
    <path
       sodipodi:type="arc"
       style="fill:#ffffff;fill-opacity:1;stroke:#000000;stroke-width:4.63398457;stroke-linejoin:miter;stroke-miterlimit:4;stroke-opacity:1;stroke-dasharray:none;stroke-dashoffset:0"
       id="path3799-7"
       sodipodi:cx="344.85916"
       sodipodi:cy="387.78769"
       sodipodi:rx="10.016657"
       sodipodi:ry="10.016657"
       d="m 354.87582,387.78769 c 0,5.53205 -4.48461,10.01666 -10.01666,10.01666 -5.53205,0 -10.01666,-4.48461 -10.01666,-10.01666 0,-5.53205 4.48461,-10.01666 10.01666,-10.01666 5.53205,0 10.01666,4.48461 10.01666,10.01666 z"
       transform="matrix(0.86318801,0,0,0.86318801,318.04461,482.46152)" />
    <path
       sodipodi:type="arc"
       style="fill:#ffffff;fill-opacity:1;stroke:#000000;stroke-width:4.63398457;stroke-linejoin:miter;stroke-miterlimit:4;stroke-opacity:1;stroke-dasharray:none;stroke-dashoffset:0"
       id="path3799-4"
       sodipodi:cx="344.85916"
       sodipodi:cy="387.78769"
       sodipodi:rx="10.016657"
       sodipodi:ry="10.016657"
       d="m 354.87582,387.78769 c 0,5.53205 -4.48461,10.01666 -10.01666,10.01666 -5.53205,0 -10.01666,-4.48461 -10.01666,-10.01666 0,-5.53205 4.48461,-10.01666 10.01666,-10.01666 5.53205,0 10.01666,4.48461 10.01666,10.01666 z"
       transform="matrix(0.86318801,0,0,0.86318801,282.27084,574.04238)" />
    <path
       sodipodi:type="arc"
       style="fill:#ffffff;fill-opacity:1;stroke:#000000;stroke-width:4.63398457;stroke-linejoin:miter;stroke-miterlimit:4;stroke-opacity:1;stroke-dasharray:none;stroke-dashoffset:0"
       id="path3799-1"
       sodipodi:cx="344.85916"
       sodipodi:cy="387.78769"
       sodipodi:rx="10.016657"
       sodipodi:ry="10.016657"
       d="m 354.87582,387.78769 c 0,5.53205 -4.48461,10.01666 -10.01666,10.01666 -5.53205,0 -10.01666,-4.48461 -10.01666,-10.01666 0,-5.53205 4.48461,-10.01666 10.01666,-10.01666 5.53205,0 10.01666,4.48461 10.01666,10.01666 z"
       transform="matrix(0.86318801,0,0,0.86318801,461.1397,589.78284)" />
    <path
       sodipodi:type="arc"
       style="fill:#ffffff;fill-opacity:1;stroke:#000000;stroke-width:4.63398457;stroke-linejoin:miter;stroke-miterlimit:4;stroke-opacity:1;stroke-dasharray:none;stroke-dashoffset:0"
       id="path3799-3"
       sodipodi:cx="344.85916"
       sodipodi:cy="387.78769"
       sodipodi:rx="10.016657"
       sodipodi:ry="10.016657"
       d="m 354.87582,387.78769 c 0,5.53205 -4.48461,10.01666 -10.01666,10.01666 -5.53205,0 -10.01666,-4.48461 -10.01666,-10.01666 0,-5.53205 4.48461,-10.01666 10.01666,-10.01666 5.53205,0 10.01666,4.48461 10.01666,10.01666 z"
       transform="matrix(0.86318801,0,0,0.86318801,498.34443,396.60447)" />
    <path
       sodipodi:type="arc"
       style="fill:#ffffff;fill-opacity:1;stroke:#000000;stroke-width:4.63398457;stroke-linejoin:miter;stroke-miterlimit:4;stroke-opacity:1;stroke-dasharray:none;stroke-dashoffset:0"
       id="path3799-21"
       sodipodi:cx="344.85916"
       sodipodi:cy="387.78769"
       sodipodi:rx="10.016657"
       sodipodi:ry="10.016657"
       d="m 354.87582,387.78769 c 0,5.53205 -4.48461,10.01666 -10.01666,10.01666 -5.53205,0 -10.01666,-4.48461 -10.01666,-10.01666 0,-5.53205 4.48461,-10.01666 10.01666,-10.01666 5.53205,0 10.01666,4.48461 10.01666,10.01666 z"
       transform="matrix(0.86318801,0,0,0.86318801,441.10639,214.8737)" />
    <path
       sodipodi:type="arc"
       style="fill:#ffffff;fill-opacity:1;stroke:#000000;stroke-width:4.63398457;stroke-linejoin:miter;stroke-miterlimit:4;stroke-opacity:1;stroke-dasharray:none;stroke-dashoffset:0"
       id="path3799-79"
       sodipodi:cx="344.85916"
       sodipodi:cy="387.78769"
       sodipodi:rx="10.016657"
       sodipodi:ry="10.016657"
       d="m 354.87582,387.78769 c 0,5.53205 -4.48461,10.01666 -10.01666,10.01666 -5.53205,0 -10.01666,-4.48461 -10.01666,-10.01666 0,-5.53205 4.48461,-10.01666 10.01666,-10.01666 5.53205,0 10.01666,4.48461 10.01666,10.01666 z"
       transform="matrix(0.86318801,0,0,0.86318801,293.71845,98.966673)" />
    <path
       sodipodi:type="arc"
       style="fill:#ffffff;fill-opacity:1;stroke:#000000;stroke-width:4.63398457;stroke-linejoin:miter;stroke-miterlimit:4;stroke-opacity:1;stroke-dasharray:none;stroke-dashoffset:0"
       id="path3799-5"
       sodipodi:cx="344.85916"
       sodipodi:cy="387.78769"
       sodipodi:rx="10.016657"
       sodipodi:ry="10.016657"
       d="m 354.87582,387.78769 c 0,5.53205 -4.48461,10.01666 -10.01666,10.01666 -5.53205,0 -10.01666,-4.48461 -10.01666,-10.01666 0,-5.53205 4.48461,-10.01666 10.01666,-10.01666 5.53205,0 10.01666,4.48461 10.01666,10.01666 z"
       transform="matrix(0.86318801,0,0,0.86318801,113.59224,73.628673)" />
    <path
       style="fill:none;stroke:#000000;stroke-width:3;stroke-linecap:butt;stroke-linejoin:miter;stroke-opacity:1;stroke-miterlimit:4;stroke-dasharray:none;marker-end:url(#Arrow2Lend)"
       d="m 1015.8824,94.496345 c -8.0946,2.023671 -297.47948,0 -297.47948,0 L 625.31409,213.89289"
       id="path4059"
       inkscape:connector-curvature="0"
       transform="translate(0,308.2677)" />
    <path
       sodipodi:nodetypes="ccc"
       inkscape:connector-curvature="0"
       id="path5680"
       d="m 336.44382,720.33061 155.58883,0 74.18075,-36.45346"
       style="fill:none;stroke:#000000;stroke-width:2.83464575;stroke-linecap:butt;stroke-linejoin:miter;stroke-miterlimit:4;stroke-opacity:1;stroke-dasharray:none;marker-end:url(#Arrow2Lend)" />
    <g
       transform="matrix(0.79323653,0,0,0.79323653,95.625714,416.62764)"
       id="g5423">
      <g
         style="font-style:normal;font-variant:normal;font-weight:normal;font-stretch:normal;letter-spacing:normal;word-spacing:normal;text-anchor:start;fill:none;stroke:#000000;stroke-linecap:butt;stroke-linejoin:miter;stroke-miterlimit:10.43299961;stroke-opacity:1;stroke-dasharray:none;stroke-dashoffset:0"
         id="g5425"
         transform="matrix(1.0629921,0,0,-1.0629921,-186.02362,789.27165)"
         xml:space="preserve"
         stroke-miterlimit="10.433"
         font-style="normal"
         font-variant="normal"
         font-weight="normal"
         font-stretch="normal"
         font-size-adjust="none"
         letter-spacing="normal"
         word-spacing="normal"><path
           style="fill:#000000;stroke-width:0"
           inkscape:connector-curvature="0"
           d="m 473.8,426.12 h 4.28 c 1,0 1.5,0 1.5,1 0,0.55 -0.5,0.55 -1.34,0.55 h -4.14 l 1.04,5.69 c 0.21,1.04 0.91,4.57 1.21,5.17 0.45,0.95 1.29,1.7 2.34,1.7 0.19,0 1.49,0 2.44,-0.91 -2.19,-0.18 -2.69,-1.93 -2.69,-2.68 0,-1.14 0.89,-1.74 1.85,-1.74 1.29,0 2.73,1.1 2.73,2.99 0,2.29 -2.3,3.43 -4.33,3.43 -1.7,0 -4.84,-0.89 -6.33,-5.82 -0.29,-1.05 -0.45,-1.55 -1.64,-7.83 h -3.43 c -0.96,0 -1.5,0 -1.5,-0.94 0,-0.61 0.45,-0.61 1.39,-0.61 h 3.29 l -3.75,-19.67 c -0.89,-4.83 -1.73,-9.38 -4.33,-9.38 -0.2,0 -1.43,0 -2.39,0.91 2.3,0.14 2.74,1.94 2.74,2.69 0,1.14 -0.89,1.75 -1.85,1.75 -1.29,0 -2.73,-1.1 -2.73,-3 0,-2.24 2.19,-3.44 4.23,-3.44 2.74,0 4.74,2.94 5.63,4.84 1.59,3.14 2.75,9.16 2.8,9.52 z"
           id="path5427" /><path
           style="fill:#000000;stroke-width:0"
           inkscape:connector-curvature="0"
           d="m 501.77,394.25 0,0.02 -0.01,0.03 0,0.01 0,0.02 0,0.01 -0.01,0.02 0,0.01 -0.01,0.02 -0.01,0.02 -0.01,0.02 -0.01,0.02 -0.01,0.03 -0.02,0.02 -0.02,0.03 -0.02,0.03 -0.02,0.03 -0.03,0.03 -0.03,0.04 -0.02,0.02 -0.01,0.02 -0.02,0.02 -0.02,0.02 -0.02,0.02 -0.02,0.03 -0.02,0.02 -0.02,0.02 -0.02,0.03 -0.03,0.02 -0.02,0.03 -0.03,0.03 -0.02,0.03 -0.03,0.03 -0.03,0.03 -0.03,0.03 -0.03,0.03 -0.03,0.03 -0.04,0.04 -0.03,0.03 -0.03,0.04 -0.04,0.03 -0.04,0.04 -0.04,0.04 c -6.22,6.28 -7.81,15.69 -7.81,23.31 0,8.67 1.89,17.35 8.01,23.56 0.65,0.61 0.65,0.71 0.65,0.86 0,0.35 -0.19,0.49 -0.49,0.49 -0.5,0 -4.98,-3.38 -7.92,-9.7 -2.55,-5.49 -3.14,-11.02 -3.14,-15.21 0,-3.89 0.55,-9.9 3.28,-15.54 2.98,-6.13 7.28,-9.36 7.78,-9.36 0.3,0 0.49,0.14 0.49,0.5 z"
           id="path5429" /><path
           style="fill:#000000;stroke-width:0"
           inkscape:connector-curvature="0"
           d="m 526.36,439.57 0,0.01 0,0.01 0,0 0,0.01 0.01,0.01 0,0.01 0,0 0,0.01 0,0.02 0.01,0.03 0,0.02 0.01,0.02 0,0.03 0.01,0.03 0.01,0.02 0,0.03 0.01,0.03 0.01,0.03 0.01,0.06 0.02,0.06 0,0.03 0.01,0.02 0.01,0.03 0,0.03 0.01,0.02 0.01,0.02 0,0.02 0.01,0.02 0,0.01 0,0.01 0,0.01 0,0.01 0,0 0.01,0.01 0,0.01 0,0 0,0.01 0,0 0,0 0,0.01 c 0,0.04 0,0.5 -0.59,0.5 -0.5,0 -0.55,-0.16 -0.75,-1 l -2.9,-11.5 c -7.92,-0.25 -15.24,-6.88 -15.24,-13.66 0,-4.73 3.48,-8.67 9.56,-9.01 l 0.25,1.09 c -2.99,0.14 -6.58,1.89 -6.58,6.87 0,5.99 4.3,12.96 11.72,13.6 l -5.14,-20.47 -0.25,-1.09 c -0.39,-1.55 -0.74,-3.15 -1.14,-4.69 -0.6,-2.35 -1.1,-4.24 -1.1,-4.39 0,-0.49 0.35,-0.55 0.6,-0.55 0.25,0 0.36,0.06 0.5,0.2 0.09,0.1 0.4,1.3 0.54,2 l 1.9,7.43 0.25,1.09 5.13,20.47 c 3.79,-0.19 6.63,-2.49 6.63,-6.88 0,-5.87 -4.28,-13 -11.76,-13.59 l -0.25,-1.09 c 8.03,0.25 15.25,6.96 15.25,13.64 0,3.93 -2.65,8.53 -9.57,9.03 z"
           id="path5431" /><path
           style="fill:#000000;stroke-width:0"
           inkscape:connector-curvature="0"
           d="m 545.91,420.92 0,0.04 0,0.04 0,0.05 0,0.04 0,0.03 0,0.04 0,0.04 0,0.03 -0.01,0.04 0,0.03 0,0.03 0,0.03 0,0.03 -0.01,0.03 0,0.03 -0.01,0.02 0,0.03 0,0.02 -0.01,0.03 0,0.02 -0.02,0.04 -0.01,0.04 -0.02,0.03 -0.02,0.03 -0.02,0.03 -0.02,0.03 -0.03,0.02 -0.03,0.02 -0.04,0.02 -0.03,0.01 -0.04,0.01 -0.05,0.02 -0.02,0 -0.03,0 -0.02,0.01 -0.03,0 -0.03,0.01 -0.02,0 -0.03,0 -0.03,0 -0.04,0 -0.03,0.01 -0.03,0 -0.04,0 -0.04,0 -0.03,0 -0.04,0 -0.04,0 -0.04,0 -0.05,0 -0.04,0 -0.05,0 c -2.23,-2.2 -5.39,-2.23 -6.83,-2.23 v -1.25 c 0.85,0 3.15,0 5.05,0.97 v -17.77 c 0,-1.16 0,-1.61 -3.48,-1.61 h -1.32 v -1.25 c 0.63,0.03 4.91,0.14 6.21,0.14 1.08,0 5.47,-0.11 6.23,-0.14 v 1.25 h -1.32 c -3.49,0 -3.49,0.45 -3.49,1.61 z"
           id="path5433" /><path
           style="fill:#000000;stroke-width:0"
           inkscape:connector-curvature="0"
           d="m 566.79,406.25 0,0.3 -0.02,0.3 -0.01,0.29 -0.03,0.28 -0.03,0.27 -0.04,0.26 -0.04,0.26 -0.05,0.24 -0.06,0.24 -0.07,0.23 -0.07,0.22 -0.07,0.21 -0.09,0.2 -0.09,0.19 -0.09,0.19 -0.1,0.17 -0.11,0.16 -0.11,0.16 -0.12,0.14 -0.12,0.13 -0.13,0.13 -0.13,0.11 -0.14,0.1 -0.15,0.1 -0.14,0.08 -0.16,0.07 -0.16,0.06 -0.16,0.05 -0.17,0.04 -0.17,0.03 -0.18,0.01 -0.18,0.01 c -1.64,0 -2.64,-1.25 -2.64,-2.64 0,-1.34 1,-2.64 2.64,-2.64 0.6,0 1.25,0.2 1.75,0.64 0.14,0.11 0.2,0.16 0.25,0.16 0.05,0 0.1,-0.05 0.1,-0.75 0,-3.69 -1.74,-6.68 -3.4,-8.32 -0.54,-0.54 -0.54,-0.65 -0.54,-0.79 0,-0.36 0.25,-0.55 0.5,-0.55 0.54,0 4.53,3.83 4.53,9.66 z"
           id="path5435" /><path
           style="fill:#000000;stroke-width:0"
           inkscape:connector-curvature="0"
           d="m 600.52,439.57 0,0.01 0,0.01 0,0 0,0.01 0.01,0.01 0,0.01 0,0 0,0.01 0,0.02 0.01,0.03 0,0.02 0.01,0.02 0,0.03 0.01,0.03 0.01,0.02 0,0.03 0.01,0.03 0.01,0.03 0.01,0.06 0.02,0.06 0,0.03 0.01,0.02 0.01,0.03 0,0.03 0.01,0.02 0.01,0.02 0,0.02 0.01,0.02 0,0.01 0,0.01 0,0.01 0,0.01 0,0 0.01,0.01 0,0.01 0,0 0,0.01 0,0 0,0 0,0.01 c 0,0.04 0,0.5 -0.59,0.5 -0.5,0 -0.55,-0.16 -0.75,-1 l -2.89,-11.5 c -7.93,-0.25 -15.25,-6.88 -15.25,-13.66 0,-4.73 3.48,-8.67 9.56,-9.01 l 0.25,1.09 c -2.99,0.14 -6.58,1.89 -6.58,6.87 0,5.99 4.3,12.96 11.72,13.6 l -5.14,-20.47 -0.25,-1.09 c -0.39,-1.55 -0.74,-3.15 -1.14,-4.69 -0.6,-2.35 -1.1,-4.24 -1.1,-4.39 0,-0.49 0.35,-0.55 0.6,-0.55 0.25,0 0.36,0.06 0.5,0.2 0.09,0.1 0.4,1.3 0.54,2 l 1.89,7.43 0.25,1.09 5.15,20.47 c 3.78,-0.19 6.62,-2.49 6.62,-6.88 0,-5.87 -4.28,-13 -11.77,-13.59 l -0.25,-1.09 c 8.04,0.25 15.25,6.96 15.25,13.64 0,3.93 -2.64,8.53 -9.56,9.03 z"
           id="path5437" /><path
           style="fill:#000000;stroke-width:0"
           inkscape:connector-curvature="0"
           d="m 625.99,405.11 h -1.19 c -0.09,-0.77 -0.45,-2.83 -0.9,-3.18 -0.27,-0.2 -2.95,-0.2 -3.44,-0.2 h -6.42 c 3.66,3.23 4.87,4.2 6.97,5.84 2.58,2.07 4.98,4.22 4.98,7.54 0,4.21 -3.69,6.79 -8.15,6.79 -4.32,0 -7.25,-3.03 -7.25,-6.23 0,-1.78 1.5,-1.96 1.86,-1.96 0.82,0 1.84,0.6 1.84,1.85 0,0.62 -0.25,1.84 -2.06,1.84 1.07,2.47 3.45,3.24 5.09,3.24 3.48,0 5.3,-2.71 5.3,-5.53 0,-3.04 -2.16,-5.44 -3.28,-6.69 l -8.39,-8.3 c -0.36,-0.31 -0.36,-0.39 -0.36,-1.36 h 14.36 z"
           id="path5439" /><path
           style="fill:#000000;stroke-width:0"
           inkscape:connector-curvature="0"
           d="m 645.23,418.65 0,0.37 -0.01,0.39 -0.01,0.39 -0.01,0.41 -0.04,0.84 -0.06,0.88 -0.08,0.92 -0.11,0.95 -0.13,0.97 -0.16,1.01 -0.2,1.02 -0.23,1.03 -0.27,1.05 -0.3,1.06 -0.35,1.07 -0.39,1.07 -0.22,0.53 -0.22,0.53 -0.24,0.53 -0.25,0.53 c -2.98,6.12 -7.27,9.36 -7.77,9.36 -0.29,0 -0.5,-0.19 -0.5,-0.49 0,-0.15 0,-0.25 0.94,-1.15 4.89,-4.92 7.73,-12.85 7.73,-23.27 0,-8.51 -1.84,-17.28 -8.03,-23.56 -0.64,-0.59 -0.64,-0.7 -0.64,-0.84 0,-0.3 0.21,-0.5 0.5,-0.5 0.5,0 4.97,3.39 7.92,9.71 2.54,5.47 3.13,11 3.13,15.19 z"
           id="path5441" /></g>    </g>
    <g
       id="g3135"
       transform="matrix(0.35185608,0.7086607,-0.7086607,0.35185608,576.34785,107.75705)">
      <g
         word-spacing="normal"
         letter-spacing="normal"
         font-size-adjust="none"
         font-stretch="normal"
         font-weight="normal"
         font-variant="normal"
         font-style="normal"
         stroke-miterlimit="10.433"
         xml:space="preserve"
         transform="matrix(1.0629921,0,0,-1.0629921,-186.02362,789.27165)"
         id="g3137"
         style="font-style:normal;font-variant:normal;font-weight:normal;font-stretch:normal;letter-spacing:normal;word-spacing:normal;text-anchor:start;fill:none;stroke:#000000;stroke-linecap:butt;stroke-linejoin:miter;stroke-miterlimit:10.43299961;stroke-opacity:1;stroke-dasharray:none;stroke-dashoffset:0"><path
           id="path3139"
           d="m 349.13475,170.08611 -5.41478,-4.42184 0.88473,-1.27269 c 2.66034,1.84938 3.20107,1.85991 4.5881,-0.13534 l 7.65438,-11.01084 c 1.27287,-1.83104 0.82127,-2.14498 -1.92117,-4.05143 l 0.88473,-1.2727 c 1.277,0.94862 3.42295,2.57438 4.40826,3.25934 1.43691,0.99889 2.9284,1.90176 4.35279,2.83106 l -0.88473,1.27269 c -2.7014,-1.87792 -3.01652,-1.79251 -4.11816,-0.20781 z"
           inkscape:connector-curvature="0"
           style="fill:#000000;stroke-width:0" /><path
           id="path3141"
           d="m 344.35267,177.33306 -0.0881,0.10924 -0.0938,0.11746 -0.0963,0.10353 -0.0963,0.10354 -0.0988,0.0896 -0.10705,0.0839 -0.10704,0.0839 -0.10955,0.07 -0.11776,0.0643 -0.11776,0.0643 -0.11206,0.0561 -0.11455,0.0421 -0.12277,0.0365 -0.12277,0.0364 -0.12276,0.0365 -0.11957,0.0143 -0.13348,0.0168 -0.11956,0.0143 -0.12206,4e-4 -0.13028,-0.005 -0.13028,-0.005 -0.12456,-0.0135 -0.11886,-0.0217 -0.12707,-0.0274 -0.11316,-0.03 -0.12957,-0.0414 -0.11566,-0.0439 -0.11565,-0.0439 -0.11816,-0.0578 -0.11245,-0.066 -0.11245,-0.066 -0.11245,-0.066 c -1.26448,-0.87903 -1.39711,-2.61538 -0.66078,-3.67458 0.77058,-1.10848 2.4101,-1.53981 3.67459,-0.66078 1.14952,0.79911 1.58226,2.36654 0.66899,3.68029 z"
           inkscape:connector-curvature="0"
           style="fill:#000000;stroke-width:0" /><path
           id="path3143"
           d="m 360.51136,172.06363 7.62583,-10.96979 c 1.27288,-1.83103 0.82128,-2.14497 -1.92117,-4.05143 l 0.88473,-1.27269 c 1.40837,1.03995 3.42295,2.57438 4.53142,3.34496 1.05921,0.73632 3.25684,2.13007 4.66481,3.04796 l -0.88473,1.27269 c -2.72603,-1.89505 -3.17763,-2.20898 -4.4505,-0.37795 l -5.2342,7.52941 c -2.96243,4.26147 -1.65079,8.55902 0.96849,10.37986 2.57823,1.7923 4.55706,-0.10821 6.17812,-2.44011 l 6.62694,-9.53288 c 1.27288,-1.83103 0.82949,-2.13926 -1.92117,-4.05143 l 0.88474,-1.27269 c 1.40837,1.03994 3.43936,2.58579 4.53963,3.35066 1.06742,0.74204 3.24862,2.12437 4.67302,3.05367 l -0.88474,1.27269 c -2.12663,-1.47836 -3.15299,-2.19186 -4.05024,-0.98876 l -5.42827,7.80859 c -2.44301,3.51427 -3.32774,4.78696 -5.60824,5.36948 -1.05744,0.31229 -2.97983,0.16944 -5.33636,-1.46875 -2.98878,-2.0777 -3.69684,-5.1762 -3.08581,-8.49036 l -2.97385,4.27789 -5.46405,-4.45609 0.88474,-1.27269 c 2.8574,1.98637 3.38811,1.94122 4.78086,-0.0622 z"
           inkscape:connector-curvature="0"
           style="fill:#000000;stroke-width:0" /><path
           id="path3145"
           d="m 383.08107,191.13909 5.84617,4.06406 -0.88473,1.2727 -5.84618,-4.06407 -5.2342,7.52941 -1.02636,-0.71349 c 2.28779,-3.3786 4.1042,-8.61942 0.21394,-11.55521 l 0.63358,-0.91141 3.47322,2.41447 7.84845,-11.29002 c 3.49327,-5.02508 7.6374,-2.87495 9.10716,-1.85322 2.89845,2.01491 2.04128,5.71818 0.22044,8.33747 l -1.62106,2.3319 -1.02637,-0.7135 1.55828,-2.24158 c 2.10623,-3.02983 1.9534,-5.43788 0.44259,-6.48815 -2.73423,-1.90075 -5.31994,1.8188 -5.80512,2.51672 z"
           inkscape:connector-curvature="0"
           style="fill:#000000;stroke-width:0" /><path
           id="path3147"
           d="m 401.19957,193.49202 -0.55828,0.89068 c -3.99719,6.25803 -1.2646,9.66782 0.13946,10.64389 4.20399,2.92247 8.45029,-2.30987 9.55763,-3.90279 l -9.69709,-6.7411 0.55828,-0.89068 11.42139,7.93977 c 0.89499,0.62217 1.00994,0.70208 0.41061,1.56422 -2.80832,4.03978 -7.76579,6.47592 -12.87298,2.92557 -4.74591,-3.29921 -5.60046,-10.12886 -2.03869,-15.25247 3.80721,-5.47668 10.85846,-6.45729 15.57153,-3.18092 4.99224,3.47044 3.66677,9.28395 3.13022,10.05578 -0.2854,0.41054 -0.66841,0.27825 -0.87368,0.13555 -0.36949,-0.25686 -0.27215,-0.55456 -0.14237,-0.95149 1.5077,-5.19968 -2.17079,-7.75684 -2.58134,-8.04224 -2.05273,-1.42699 -4.53719,-1.33945 -6.5235,-0.47935 -2.59584,1.10622 -4.47946,3.81582 -5.50119,5.28558 z"
           inkscape:connector-curvature="0"
           style="fill:#000000;stroke-width:0" /><path
           id="path3149"
           d="m 418.7351,211.82031 -3.11654,4.48316 -5.37373,-4.3933 0.88473,-1.27269 c 2.8574,1.98637 3.38812,1.94123 4.78086,-0.0622 l 7.62584,-10.96979 c 1.27288,-1.83103 0.82127,-2.14497 -1.92117,-4.05143 l 0.88473,-1.27269 c 1.57259,1.15411 3.42295,2.57438 4.58069,3.3792 1.62576,1.13018 3.55532,2.47155 5.28884,3.48177 l -0.88474,1.27269 -0.86214,-0.59933 c -3.02983,-2.10624 -3.42838,-1.72564 -4.45582,-0.24767 l -4.378,6.29777 c -2.80832,4.03977 -3.61836,8.88409 -0.50642,11.04741 0.27917,0.19407 0.36128,0.25115 0.48014,0.27288 -0.10855,-0.12417 -0.58716,-1.18762 0.14917,-2.24683 0.80482,-1.15774 2.08365,-1.1578 2.99506,-0.52422 0.73077,0.50801 1.42037,1.70595 0.5128,3.01149 -0.91327,1.31374 -3.0022,1.60317 -4.75934,0.38167 -2.98877,-2.0777 -2.5717,-5.83116 -1.92496,-7.98785 z"
           inkscape:connector-curvature="0"
           style="fill:#000000;stroke-width:0" /><path
           id="path3151"
           d="m 432.32399,227.25888 -3.2992,4.74591 c -2.5058,3.60459 -1.90759,6.93121 -0.11761,8.17554 0.13138,0.0913 0.74719,0.51943 1.5685,0.65193 -0.39241,-0.50419 -0.75217,-1.54591 -0.0444,-2.56407 0.65641,-0.94425 1.88408,-1.30871 2.98435,-0.54384 1.18237,0.82195 1.22739,2.07114 0.54244,3.05645 -1.05027,1.5108 -3.50539,1.80142 -5.67308,0.29452 -2.8574,-1.98637 -4.83192,-6.57423 -1.81812,-10.90959 l 3.27066,-4.70486 -3.22689,-2.24323 0.88473,-1.27269 3.22689,2.24323 9.21265,-13.25242 c 1.27288,-1.83104 0.82949,-2.13927 -1.92117,-4.05144 l 0.88474,-1.27269 c 1.5808,1.15982 3.43936,2.5858 4.58068,3.37921 1.63397,1.13588 3.55533,2.47154 5.28884,3.48176 l -0.88473,1.27269 -0.86215,-0.59933 c -3.02162,-2.10053 -3.41196,-1.71422 -4.43939,-0.23626 l -9.14986,13.16211 4.65559,3.23641 -0.88474,1.27269 z"
           inkscape:connector-curvature="0"
           style="fill:#000000;stroke-width:0" /><path
           id="path3153"
           d="m 461.39681,225.92486 0.12487,-0.14459 0.12737,-0.13067 0.1413,-0.13318 0.13559,-0.12496 0.1495,-0.12747 0.1438,-0.11926 0.15201,-0.11355 0.16022,-0.10784 0.16843,-0.10213 0.16272,-0.0939 0.17664,-0.0964 0.16523,-0.08 0.17344,-0.0743 0.18164,-0.0686 0.18165,-0.0686 0.17844,-0.0465 0.18666,-0.0408 0.18665,-0.0408 0.18916,-0.0268 0.18344,-0.0186 0.19166,-0.0129 0.18846,0.009 0.18845,0.009 0.19096,0.0231 0.19346,0.0371 0.18775,0.0453 0.19026,0.0592 0.18454,0.0674 0.18706,0.0813 0.18134,0.0895 0.18384,0.10345 0.18635,0.11736 c 0.84573,0.58792 2.94479,2.91183 0.64448,6.22083 l -1.58681,2.28263 -1.02637,-0.71349 1.58682,-2.28264 c 1.6496,-2.37295 0.80268,-3.32707 0.34287,-3.64671 -1.34659,-0.93611 -2.78368,0.78077 -2.92638,0.98604 l -5.69084,8.18628 c -1.19867,1.7243 -2.30031,3.309 -4.81782,3.81201 -2.71098,0.46594 -5.20392,-0.29276 -7.16633,-1.65696 -3.36648,-2.34026 -4.85287,-6.21124 -2.97495,-8.91263 0.85048,-1.22343 2.16246,-1.35877 3.22167,-0.62244 1.14132,0.7934 1.31771,2.13392 0.57568,3.20134 -0.33677,0.48444 -1.47815,1.68834 -3.40662,0.43298 0.121,2.19106 1.81053,4.03541 3.11606,4.94297 2.01168,1.39845 5.44271,1.42089 7.97705,-2.22476 l 1.05026,-1.51081 0.59934,-0.86214 2.84256,-4.08904 c 2.70558,-3.89198 0.725,-7.31486 -1.12245,-8.59915 -2.00347,-1.39275 -4.67739,-1.12026 -6.09296,0.91605 -1.55827,2.24158 -2.211,6.84207 4.37285,11.77214 h 0 l -0.59934,0.86214 c -1.99745,-1.55907 -4.77173,-3.68252 -6.49377,-6.70646 -2.09802,-3.51671 -1.64603,-6.35683 -0.39598,-8.15502 2.30031,-3.309 6.97967,-1.57842 9.5579,0.21388 2.70961,1.88362 3.44581,4.81901 2.89019,7.28262 z"
           inkscape:connector-curvature="0"
           style="fill:#000000;stroke-width:0" /><path
           id="path3155"
           d="m 469.00686,239.83779 -0.2169,0.31201 -0.19728,0.3013 -0.18906,0.30701 -0.18336,0.2988 -0.17765,0.29059 -0.16943,0.29629 -0.14981,0.28558 -0.14982,0.28559 -0.13589,0.28307 -0.13018,0.27487 -0.12448,0.26666 -0.10805,0.27807 -0.2072,0.5258 -0.16794,0.50438 -0.14011,0.49937 -0.11477,0.48045 -0.0812,0.46723 -0.0641,0.44259 -0.0281,0.4433 -0.0109,0.41866 0.0144,0.39974 0.034,0.38903 0.0454,0.37261 0.0733,0.36759 0.0904,0.34297 0.10183,0.32655 0.12145,0.31583 0.13858,0.29119 0.1525,0.2887 0.1557,0.26656 0.16141,0.25836 0.17854,0.23372 0.18424,0.22551 0.19566,0.20909 0.19315,0.19517 0.19636,0.17304 0.20207,0.16482 0.19956,0.15091 c 0.36129,0.25115 2.96805,2.0024 5.4324,1.52333 -1.58941,-1.28759 -0.98525,-2.68226 -0.61423,-3.21597 0.74203,-1.06742 2.0436,-1.3805 3.20134,-0.57568 1.051,0.73062 1.3812,2.00756 0.53642,3.22277 -1.93499,2.78351 -6.14607,2.21881 -9.30727,0.0213 -5.10719,-3.55035 -5.81083,-10.57957 -2.28331,-15.65392 3.63597,-5.23035 10.5119,-6.46681 15.25781,-3.16761 5.47668,3.80721 3.36315,9.63311 3.08917,10.02724 -0.2854,0.41054 -0.69595,0.12515 -0.8109,0.0452 -0.36949,-0.25685 -0.33494,-0.46423 -0.24831,-0.78156 1.45471,-4.61539 -0.85494,-6.95172 -2.37396,-8.00769 -2.16769,-1.5069 -6.99378,-2.25556 -11.57157,4.3296 z"
           inkscape:connector-curvature="0"
           style="fill:#000000;stroke-width:0" /><path
           id="path3157"
           d="m 486.51923,252.80344 -0.55829,0.89068 c -3.98897,6.26374 -1.2646,9.66782 0.13947,10.64389 4.20399,2.92247 8.45029,-2.30987 9.55763,-3.90279 l -9.6971,-6.7411 0.55829,-0.89068 11.42138,7.93977 c 0.89499,0.62217 1.00995,0.70208 0.41061,1.56423 -2.80832,4.03977 -7.774,6.4702 -12.87298,2.92556 -4.75412,-3.30491 -5.60046,-10.12886 -2.03869,-15.25247 3.80721,-5.47668 10.86668,-6.45159 15.57153,-3.18092 4.99224,3.47044 3.66677,9.28395 3.13023,10.05578 -0.2854,0.41054 -0.66841,0.27825 -0.87369,0.13555 -0.36949,-0.25686 -0.28036,-0.56026 -0.13415,-0.94578 1.49948,-5.20539 -2.17901,-7.76255 -2.58955,-8.04795 -2.05273,-1.42699 -4.53719,-1.33945 -6.5235,-0.47935 -2.59584,1.10622 -4.47947,3.81582 -5.50119,5.28558 z"
           inkscape:connector-curvature="0"
           style="fill:#000000;stroke-width:0" /></g>    </g>
    <g
       id="g3295"
       transform="matrix(0.6588578,0,0,0.6588578,532.96281,153.14026)">
      <g
         word-spacing="normal"
         letter-spacing="normal"
         font-size-adjust="none"
         font-stretch="normal"
         font-weight="normal"
         font-variant="normal"
         font-style="normal"
         stroke-miterlimit="10.433"
         xml:space="preserve"
         transform="matrix(1.0629921,0,0,-1.0629921,-186.02362,789.27165)"
         id="g3297"
         style="font-style:normal;font-variant:normal;font-weight:normal;font-stretch:normal;letter-spacing:normal;word-spacing:normal;text-anchor:start;fill:none;stroke:#000000;stroke-linecap:butt;stroke-linejoin:miter;stroke-miterlimit:10.43299961;stroke-opacity:1;stroke-dasharray:none;stroke-dashoffset:0"><path
           id="path3299"
           d="m 461,423.34 v -13.36 c 0,-2.23 -0.54,-2.23 -3.89,-2.23 v -1.55 c 1.75,0.05 4.28,0.16 5.63,0.16 1.3,0 3.89,-0.11 5.58,-0.16 v 1.55 c -3.33,0 -3.88,0 -3.88,2.23 v 9.17 c 0,5.19 3.53,7.97 6.72,7.97 3.14,0 3.69,-2.69 3.69,-5.53 v -11.61 c 0,-2.23 -0.55,-2.23 -3.89,-2.23 v -1.55 c 1.75,0.05 4.29,0.16 5.64,0.16 1.29,0 3.87,-0.11 5.58,-0.16 v 1.55 c -3.35,0 -3.89,0 -3.89,2.23 v 9.17 c 0,5.19 3.54,7.97 6.73,7.97 3.14,0 3.69,-2.69 3.69,-5.53 v -11.61 c 0,-2.23 -0.55,-2.23 -3.89,-2.23 v -1.55 c 1.73,0.05 4.28,0.16 5.62,0.16 1.3,0 3.89,-0.11 5.58,-0.16 v 1.55 c -2.58,0 -3.83,0 -3.88,1.5 v 9.51 c 0,4.28 0,5.83 -1.54,7.61 -0.71,0.86 -2.35,1.84 -5.24,1.84 -4.18,0 -6.37,-2.98 -7.22,-4.87 -0.7,4.33 -4.39,4.87 -6.62,4.87 -3.64,0 -5.98,-2.14 -7.38,-5.21 v 5.21 l -7.03,-0.54 v -1.55 c 3.49,0 3.89,-0.34 3.89,-2.78 z"
           inkscape:connector-curvature="0"
           style="fill:#000000;stroke-width:0" /><path
           id="path3301"
           d="m 520.51,416.86 -0.02,0.59 -0.04,0.59 -0.07,0.58 -0.1,0.57 -0.12,0.56 -0.15,0.55 -0.18,0.54 -0.2,0.53 -0.22,0.51 -0.24,0.5 -0.27,0.49 -0.29,0.47 -0.31,0.46 -0.32,0.44 -0.35,0.43 -0.37,0.4 -0.38,0.39 -0.4,0.37 -0.42,0.35 -0.43,0.32 -0.45,0.31 -0.46,0.28 -0.48,0.26 -0.48,0.24 -0.5,0.21 -0.51,0.18 -0.52,0.16 -0.53,0.13 -0.54,0.11 -0.55,0.07 -0.56,0.05 -0.56,0.01 -0.04,-1.09 c 2.18,0 4.32,-1.1 5.62,-3.24 1.3,-2.14 1.3,-5.03 1.3,-6.92 0,-1.8 0,-4.48 -1.1,-6.67 -1.09,-2.25 -3.28,-3.69 -5.78,-3.69 h 0 c -2.14,0 -4.33,1.05 -5.67,3.33 -1.25,2.2 -1.25,5.23 -1.25,7.03 0,1.94 0,4.63 1.19,6.83 1.36,2.28 3.69,3.33 5.69,3.33 l 0.04,1.09 c -6.22,0 -11.06,-5.42 -11.06,-11.65 0,-6.43 5.19,-11.21 11.02,-11.21 6.03,0 11.06,4.88 11.06,11.21 z"
           inkscape:connector-curvature="0"
           style="fill:#000000;stroke-width:0" /><path
           id="path3303"
           d="m 542.38,408.93 v -3.28 l 7.31,0.55 v 1.55 c -3.49,0 -3.88,0.34 -3.88,2.78 v 30.25 l -7.17,-0.55 v -1.55 c 3.48,0 3.88,-0.34 3.88,-2.79 v -10.75 c -1.44,1.78 -3.58,3.07 -6.29,3.07 l 0.21,-1.09 c 1.75,0 3.84,-0.75 5.39,-2.98 0.55,-0.85 0.55,-0.96 0.55,-1.85 h 0 v -10.22 c 0,-0.89 0,-1 -0.55,-1.84 -1.5,-2.39 -3.75,-3.48 -5.89,-3.48 -2.24,0 -4.03,1.29 -5.22,3.18 -1.3,2.05 -1.45,4.89 -1.45,6.93 0,1.84 0.09,4.84 1.54,7.07 1.05,1.55 2.94,3.19 5.63,3.19 l -0.21,1.09 c -5.87,0 -11.11,-4.87 -11.11,-11.29 0,-6.33 4.9,-11.27 10.57,-11.27 3.19,0 5.43,1.69 6.69,3.28 z"
           inkscape:connector-curvature="0"
           style="fill:#000000;stroke-width:0" /><path
           id="path3305"
           d="m 556.69,417.71 0.04,1.05 c 0.3,7.42 4.49,8.66 6.19,8.66 5.13,0 5.63,-6.72 5.63,-8.66 h -11.82 l -0.04,-1.05 h 13.9 c 1.1,0 1.24,0 1.24,1.05 0,4.92 -2.69,9.75 -8.91,9.75 -5.78,0 -10.37,-5.12 -10.37,-11.36 0,-6.67 5.23,-11.5 10.97,-11.5 6.07,0 8.31,5.53 8.31,6.47 0,0.5 -0.39,0.61 -0.64,0.61 -0.46,0 -0.55,-0.3 -0.66,-0.7 -1.73,-5.13 -6.22,-5.13 -6.72,-5.13 -2.5,0 -4.48,1.49 -5.62,3.33 -1.5,2.39 -1.5,5.69 -1.5,7.48 z"
           inkscape:connector-curvature="0"
           style="fill:#000000;stroke-width:0" /><path
           id="path3307"
           d="m 582.05,440.78 -7.17,-0.55 v -1.55 c 3.48,0 3.89,-0.34 3.89,-2.79 v -25.91 c 0,-2.23 -0.55,-2.23 -3.89,-2.23 v -1.55 c 1.64,0.05 4.28,0.16 5.53,0.16 1.25,0 3.68,-0.11 5.53,-0.16 v 1.55 c -3.35,0 -3.89,0 -3.89,2.23 z"
           inkscape:connector-curvature="0"
           style="fill:#000000;stroke-width:0" /><path
           id="path3309"
           d="m 610.5,416.86 -0.01,0.59 -0.05,0.59 -0.07,0.58 -0.1,0.57 -0.12,0.56 -0.15,0.55 -0.17,0.54 -0.2,0.53 -0.23,0.51 -0.24,0.5 -0.27,0.49 -0.29,0.47 -0.3,0.46 -0.33,0.44 -0.35,0.43 -0.37,0.4 -0.38,0.39 -0.4,0.37 -0.42,0.35 -0.43,0.32 -0.45,0.31 -0.46,0.28 -0.47,0.26 -0.49,0.24 -0.5,0.21 -0.51,0.18 -0.52,0.16 -0.53,0.13 -0.54,0.11 -0.55,0.07 -0.55,0.05 -0.57,0.01 -0.04,-1.09 c 2.18,0 4.33,-1.1 5.62,-3.24 1.3,-2.14 1.3,-5.03 1.3,-6.92 0,-1.8 0,-4.48 -1.09,-6.67 -1.1,-2.25 -3.29,-3.69 -5.79,-3.69 h 0 c -2.14,0 -4.32,1.05 -5.67,3.33 -1.25,2.2 -1.25,5.23 -1.25,7.03 0,1.94 0,4.63 1.19,6.83 1.36,2.28 3.69,3.33 5.69,3.33 l 0.04,1.09 c -6.21,0 -11.06,-5.42 -11.06,-11.65 0,-6.43 5.19,-11.21 11.02,-11.21 6.03,0 11.06,4.88 11.06,11.21 z"
           inkscape:connector-curvature="0"
           style="fill:#000000;stroke-width:0" /><path
           id="path3311"
           d="m 662.58,417.9 0,0.01 0,0 0.01,0.02 0,0.01 0.01,0.02 0.01,0.01 0,0.02 0.01,0.02 0.01,0.02 0.01,0.03 0.01,0.02 0,0.02 0.01,0.03 0.02,0.05 0.02,0.04 0.01,0.05 0.01,0.03 0.01,0.02 0.01,0.02 0,0.02 0.01,0.03 0.01,0.02 0,0.01 0.01,0.02 0,0.02 0,0.01 0.01,0.01 0,0 0,0.01 0,0.01 0,0 0,0.01 0,0 0,0 c 0,0.55 -0.61,0.55 -0.75,0.55 -0.55,0 -0.61,-0.06 -1.05,-1.2 -2.89,-6.88 -4.64,-10.11 -12.56,-10.11 h -6.08 c -1.54,0 -1.54,0.14 -1.54,0.5 0,0.29 0.15,0.79 0.2,1.09 l 3.44,13.7 h 4.34 c 3.38,0 3.74,-0.79 3.74,-2.14 0,-0.36 -0.05,-1.11 -0.46,-2.54 0,-0.1 -0.09,-0.4 -0.09,-0.55 0,-0.6 0.5,-0.6 0.8,-0.6 0.54,0 0.68,0.1 0.89,0.99 l 2.73,10.97 c 0.06,0.14 0.16,0.54 0.16,0.64 0,0.61 -0.6,0.61 -0.8,0.61 -0.64,0 -0.64,-0.16 -0.95,-1.21 -0.94,-3.53 -1.89,-4.62 -5.92,-4.62 h -4.04 l 3.04,12.25 c 0.4,1.64 0.74,1.69 2.39,1.69 h 6.23 c 5.38,0 6.62,-1.49 6.62,-5.03 0,-1.35 -0.1,-1.99 -0.24,-3.19 -0.05,-0.25 -0.1,-0.69 -0.1,-0.85 0,-0.59 0.55,-0.59 0.74,-0.59 0.7,0 0.75,0.2 0.86,1.09 l 1.14,8.82 c 0.14,1.29 -0.16,1.29 -1.21,1.29 h -23.26 c -0.85,0 -1.35,0 -1.35,-0.89 0,-0.65 0.36,-0.65 1.35,-0.65 2.89,0 2.89,-0.39 2.89,-0.85 0,-0.04 0,-0.39 -0.19,-1.14 l -6.69,-26.7 c -0.39,-1.7 -0.68,-2.09 -4.08,-2.09 -0.79,0 -1.34,0 -1.34,-0.96 0,-0.59 0.44,-0.59 1.24,-0.59 h 23.87 c 1,0 1.05,0.05 1.39,0.8 z"
           inkscape:connector-curvature="0"
           style="fill:#000000;stroke-width:0" /><path
           id="path3313"
           d="m 687.95,425.68 0.02,0.06 0.01,0.05 0.02,0.06 0.01,0.05 0.01,0.05 0.01,0.04 0.02,0.05 0,0.02 0,0.03 0.01,0.02 0,0.02 0.01,0.02 0,0.02 0,0.02 0.01,0.02 0,0.02 0,0.02 0,0.01 0.01,0.02 0,0.02 0,0.01 0,0.02 0,0.01 0,0.02 0,0.01 c 0,0.55 -0.39,1.3 -1.39,1.3 -1.5,0 -1.85,-1.44 -1.94,-1.85 l -3.64,-14.54 c -0.25,-0.89 -0.25,-1 -0.7,-1.64 -0.94,-1.39 -2.39,-2.89 -4.58,-2.89 -2.25,0 -2.69,2.18 -2.69,3.84 0,3.03 1.64,7.52 2.89,10.91 0.39,1.04 0.64,1.73 0.64,2.68 0,2.5 -1.64,4.03 -3.78,4.03 -4.64,0 -6.37,-7.37 -6.37,-7.67 0,-0.5 0.5,-0.5 0.73,-0.5 0.66,0 0.71,0.11 0.91,0.8 0.39,1.55 1.73,6.28 4.62,6.28 0.55,0 1.11,-0.14 1.11,-1.44 0,-1.2 -0.5,-2.54 -1.2,-4.48 -1.3,-3.49 -2.6,-7.17 -2.6,-9.77 0,-4.34 2.9,-5.78 5.58,-5.78 2.64,0 4.35,1.5 5.54,2.99 0.9,-2.69 3.04,-2.99 3.98,-2.99 1.84,0 2.89,1.25 3.64,2.78 0.91,1.91 1.5,4.8 1.5,4.89 0,0.5 -0.41,0.5 -0.75,0.5 -0.59,0 -0.64,-0.04 -0.95,-1.14 -0.69,-2.79 -1.64,-5.93 -3.33,-5.93 -1.3,0 -1.3,1.34 -1.3,2.04 0,0.35 0,1.14 0.34,2.53 z"
           inkscape:connector-curvature="0"
           style="fill:#000000;stroke-width:0" /><path
           id="path3315"
           d="m 704.24,439.53 0,0.01 0.01,0.02 0,0.02 0.01,0.02 0,0.02 0.01,0.02 0.01,0.02 0,0.02 0.01,0.02 0.01,0.03 0.01,0.04 0.01,0.05 0.01,0.05 0.02,0.05 0,0.03 0.01,0.02 0,0.02 0.01,0.02 0,0.03 0.01,0.02 0,0.02 0,0.02 0.01,0.01 0,0.02 0,0.02 0,0.01 0,0.01 0.01,0.01 c 0,0.44 -0.3,0.6 -0.71,0.6 -0.16,0 -0.64,-0.05 -0.79,-0.11 l -4.94,-0.39 c -0.6,-0.05 -1.14,-0.1 -1.14,-1.05 0,-0.55 0.5,-0.55 1.2,-0.55 2.39,0 2.48,-0.34 2.48,-0.84 0,-0.16 -0.15,-0.8 -0.15,-0.84 l -6.22,-24.93 c -0.05,-0.2 -0.3,-1.18 -0.3,-1.93 0,-2.64 1.8,-4.49 4.19,-4.49 1.89,0 2.89,1.35 3.53,2.6 0.85,1.73 1.55,4.92 1.55,5.07 0,0.5 -0.41,0.5 -0.75,0.5 -0.25,0 -0.55,0 -0.7,-0.25 l -0.35,-1.25 c -0.84,-3.48 -1.8,-5.57 -3.19,-5.57 -1.29,0 -1.29,1.34 -1.29,2.04 0,0.35 0,1.1 0.29,2.28 z"
           inkscape:connector-curvature="0"
           style="fill:#000000;stroke-width:0" /><path
           id="path3317"
           d="m 713.77,417.71 0.15,0.01 0.15,0 0.17,0 0.17,0 0.19,0.01 0.19,0 0.2,0.01 0.2,0.01 0.22,0.01 0.22,0.02 0.22,0.01 0.23,0.02 0.48,0.04 0.49,0.05 0.49,0.07 0.51,0.07 0.51,0.09 0.5,0.11 0.5,0.11 0.25,0.07 0.24,0.07 0.24,0.07 0.24,0.08 0.23,0.08 0.23,0.09 c 3.94,1.59 3.94,4.83 3.94,5.17 0,2.3 -1.85,4.23 -5.03,4.23 v -1.09 c 2,0 3.13,-1.34 3.13,-3.03 0,-5.28 -8.21,-5.28 -9.85,-5.28 h -1.05 c 2.14,8.17 7.27,8.31 7.77,8.31 v 1.09 c -5.24,0 -12.37,-5.03 -12.37,-13.84 0,-4.48 2.41,-8.72 7.13,-8.72 6.39,0 10.52,4.99 10.52,5.74 0,0.25 -0.4,0.79 -0.8,0.79 -0.2,0 -0.25,-0.06 -0.64,-0.54 -3.69,-4.69 -8.13,-4.89 -8.97,-4.89 -3.24,0 -3.78,3.53 -3.78,5.48 0,1.89 0.48,4.13 0.84,5.48 z"
           inkscape:connector-curvature="0"
           style="fill:#000000;stroke-width:0" /><path
           id="path3319"
           d="m 737.64,420.54 0,0.01 0.01,0.03 0.01,0.02 0.02,0.04 0.01,0.05 0.02,0.05 0.02,0.06 0.03,0.07 0.03,0.08 0.03,0.08 0.04,0.08 0.04,0.1 0.08,0.2 0.1,0.23 0.12,0.24 0.12,0.26 0.14,0.27 0.15,0.28 0.16,0.29 0.18,0.3 0.19,0.31 0.2,0.3 0.21,0.3 0.22,0.31 0.24,0.29 0.25,0.29 0.26,0.28 0.28,0.27 0.29,0.25 0.29,0.24 0.32,0.21 0.32,0.2 0.17,0.09 0.17,0.08 0.17,0.08 0.17,0.06 0.18,0.07 0.18,0.05 0.19,0.05 0.19,0.04 0.19,0.03 0.19,0.02 0.2,0.02 0.2,0 c 0.23,0 1.64,0 2.64,-0.69 -1.75,-0.56 -1.91,-2.15 -1.91,-2.39 0,-0.65 0.46,-1.61 1.75,-1.61 0.89,0 2.44,0.71 2.44,2.64 0,2.6 -3.23,3.14 -4.87,3.14 -3.44,0 -5.24,-2.48 -6.04,-3.57 -0.54,2.64 -2.5,3.57 -4.14,3.57 -1.79,0 -2.78,-1.14 -3.57,-2.64 -0.96,-1.98 -1.6,-4.92 -1.6,-5.03 0,-0.5 0.5,-0.5 0.74,-0.5 0.65,0 0.7,0.07 0.95,1.16 0.89,3.48 1.84,5.92 3.39,5.92 1.3,0 1.3,-1.44 1.3,-1.98 0,-0.8 -0.16,-1.75 -0.36,-2.55 l -3.74,-14.95 c -0.09,-0.3 -0.14,-0.55 -0.14,-0.69 0,-0.55 0.39,-1.3 1.39,-1.3 1.5,0 1.85,1.44 1.94,1.85 z"
           inkscape:connector-curvature="0"
           style="fill:#000000;stroke-width:0" /><path
           id="path3321"
           d="m 762.26,413.32 0,0.03 0,0.02 0,0.02 0,0.02 0,0.02 -0.01,0.02 0,0.02 -0.01,0.02 0,0.02 0,0.01 -0.01,0.02 -0.01,0.02 0,0.01 -0.01,0.02 -0.01,0.01 0,0.01 -0.01,0.02 -0.01,0.01 -0.02,0.02 -0.02,0.02 -0.02,0.02 -0.02,0.02 -0.03,0.02 -0.02,0.01 -0.03,0.01 -0.02,0.01 -0.03,0.01 -0.03,0.01 -0.03,0.01 -0.03,0 -0.03,0.01 -0.03,0 -0.03,0.01 -0.04,0 -0.03,0 -0.06,0 -0.07,0 -0.06,0 c -0.66,0 -0.66,-0.11 -0.86,-0.84 -0.39,-1.45 -1.74,-6.23 -4.63,-6.23 -0.4,0 -1.09,0.04 -1.09,1.39 0,1.29 0.64,2.93 1.3,4.78 l 3.18,8.53 c 0.5,1.44 0.6,1.84 0.6,2.78 0,2.75 -1.89,3.98 -3.74,3.98 -4.69,0 -6.37,-7.42 -6.37,-7.67 0,-0.5 0.5,-0.5 0.73,-0.5 0.66,0 0.7,0.11 0.91,0.8 0.45,1.66 1.73,6.28 4.62,6.28 0.55,0 1.11,-0.25 1.11,-1.39 0,-1.2 -0.56,-2.64 -0.9,-3.59 l -1.49,-4.13 c -0.65,-1.65 -1.25,-3.3 -1.84,-4.94 -0.71,-1.89 -0.91,-2.43 -0.91,-3.43 0,-1.94 1.2,-3.99 3.78,-3.99 4.69,0 6.33,7.47 6.33,7.67 z"
           inkscape:connector-curvature="0"
           style="fill:#000000;stroke-width:0" /><path
           id="path3323"
           d="m 762.01,437.23 0,0.06 0,0.05 0,0.06 -0.01,0.05 -0.01,0.06 0,0.05 -0.02,0.1 -0.03,0.1 -0.02,0.09 -0.04,0.08 -0.03,0.09 -0.04,0.07 -0.05,0.08 -0.05,0.07 -0.05,0.06 -0.05,0.07 -0.06,0.05 -0.06,0.06 -0.06,0.05 -0.06,0.04 -0.07,0.05 -0.06,0.04 -0.07,0.03 -0.07,0.04 -0.07,0.02 -0.07,0.03 -0.08,0.02 -0.07,0.02 -0.07,0.02 -0.07,0.02 -0.07,0.01 -0.07,0.01 -0.07,0 -0.07,0.01 -0.07,0 c -1.04,0 -2.39,-1 -2.39,-2.39 0,-1.25 1,-1.66 1.69,-1.66 1,0 2.39,0.95 2.39,2.39 z"
           inkscape:connector-curvature="0"
           style="fill:#000000;stroke-width:0" /><path
           id="path3325"
           d="m 778.41,409.14 0.05,-0.23 0.06,-0.21 0.07,-0.21 0.08,-0.2 0.08,-0.2 0.09,-0.18 0.1,-0.18 0.1,-0.17 0.1,-0.16 0.12,-0.15 0.11,-0.15 0.12,-0.14 0.13,-0.13 0.13,-0.12 0.14,-0.12 0.13,-0.11 0.14,-0.1 0.15,-0.1 0.15,-0.09 0.15,-0.08 0.15,-0.07 0.16,-0.07 0.15,-0.06 0.16,-0.06 0.16,-0.04 0.16,-0.05 0.17,-0.03 0.16,-0.03 0.16,-0.02 0.16,-0.02 0.17,0 0.16,-0.01 c 1.85,0 2.89,1.25 3.64,2.78 0.91,1.91 1.5,4.8 1.5,4.89 0,0.5 -0.4,0.5 -0.75,0.5 -0.59,0 -0.64,-0.04 -0.95,-1.14 -0.69,-2.79 -1.64,-5.93 -3.33,-5.93 -1.3,0 -1.3,1.34 -1.3,2.04 0,0.35 0,1.14 0.35,2.53 l 3.39,13.57 c 0.2,0.68 0.2,0.79 0.2,1.04 0,1.05 -0.84,1.3 -1.34,1.3 -1.6,0 -1.96,-1.7 -2,-1.95 -0.94,2.14 -2.53,2.93 -4.13,2.93 v -1.09 c 2.19,0 3.44,-2.59 3.44,-4.69 0,-0.09 -0.06,-0.34 -0.16,-0.64 h 0 l -2.34,-9.42 c -0.39,-1.59 -3.48,-5.62 -6.22,-5.62 -2.34,0 -2.75,2.93 -2.75,4.43 0,2.49 1.55,8.32 2.44,10.41 1.25,3.05 3.55,5.53 5.59,5.53 v 1.09 c -5.53,0 -11.42,-7.56 -11.42,-14.84 0,-4.23 2.3,-7.72 6.03,-7.72 1.8,0 3.99,1.05 5.99,3.49 z"
           inkscape:connector-curvature="0"
           style="fill:#000000;stroke-width:0" /><path
           id="path3327"
           d="m 797.91,414.92 0.09,0.41 0.1,0.4 0.1,0.4 0.1,0.41 0.11,0.4 0.1,0.4 0.1,0.4 0.09,0.41 c 0.66,2.55 0.66,2.6 1.5,4.05 0.71,1.19 2.94,4.92 6.74,4.92 2.18,0 2.28,-2.23 2.28,-3.28 0,-3.09 -2.19,-9.02 -2.89,-11.02 -0.64,-1.68 -0.8,-2.14 -0.8,-3.18 0,-2.19 1.41,-3.99 3.8,-3.99 4.62,0 6.33,7.42 6.33,7.67 0,0.5 -0.41,0.5 -0.75,0.5 -0.66,0 -0.66,-0.11 -0.86,-0.84 -0.39,-1.34 -1.74,-6.23 -4.63,-6.23 -1.04,0 -1.09,0.75 -1.09,1.45 0,1.23 0.5,2.53 0.89,3.73 1,2.64 3.05,8.22 3.05,11.11 0,4.08 -2.75,5.17 -5.19,5.17 -4.08,0 -6.47,-2.98 -7.13,-3.93 -0.34,2.45 -2.04,3.93 -4.18,3.93 -1.8,0 -2.79,-1.14 -3.58,-2.64 -0.96,-1.98 -1.6,-4.92 -1.6,-5.03 0,-0.5 0.5,-0.5 0.74,-0.5 0.65,0 0.7,0.07 0.95,1.16 0.89,3.48 1.84,5.92 3.39,5.92 1.3,0 1.3,-1.44 1.3,-1.98 0,-0.8 -0.16,-1.75 -0.36,-2.55 l -3.73,-14.95 c -0.1,-0.3 -0.15,-0.55 -0.15,-0.69 0,-0.55 0.39,-1.3 1.39,-1.3 0.6,0 1.46,0.35 1.8,1.3 z"
           inkscape:connector-curvature="0"
           style="fill:#000000;stroke-width:0" /><path
           id="path3329"
           d="m 839.77,420.04 -0.01,0.44 -0.02,0.43 -0.05,0.43 -0.05,0.41 -0.08,0.41 -0.09,0.4 -0.11,0.38 -0.12,0.38 -0.13,0.36 -0.15,0.36 -0.17,0.34 -0.18,0.33 -0.19,0.32 -0.21,0.3 -0.22,0.3 -0.23,0.27 -0.25,0.27 -0.26,0.25 -0.27,0.24 -0.28,0.22 -0.29,0.2 -0.31,0.19 -0.31,0.18 -0.33,0.15 -0.34,0.14 -0.35,0.13 -0.35,0.1 -0.37,0.09 -0.38,0.07 -0.38,0.05 -0.4,0.02 -0.4,0.01 c -6.17,0 -12.59,-7.06 -12.59,-14.34 0,-5.12 3.13,-8.22 7.26,-8.22 v 1.1 c -1.94,0 -3.78,1.54 -3.78,5.12 0,2.5 1.3,8.03 2.89,10.72 1.84,3.05 4.23,4.53 6.17,4.53 2.46,0 3.84,-2.19 3.84,-5.12 0,-2.14 -1.09,-7.29 -2.68,-10.27 -1.45,-2.73 -3.99,-4.98 -6.44,-4.98 h 0 v -1.1 c 6.19,0 12.61,7.08 12.61,14.39 z"
           inkscape:connector-curvature="0"
           style="fill:#000000;stroke-width:0" /></g>    </g>
    <path
       style="fill:none;stroke:#000000;stroke-width:5;stroke-linecap:butt;stroke-linejoin:miter;stroke-miterlimit:4;stroke-opacity:1;stroke-dasharray:none"
       d="m 210.34979,114.47606 c 0,0 98.73561,74.40945 206.05694,93.01181 155.50164,26.95362 154.5427,8.58571 228.95216,64.39279 74.40945,55.80709 65.68585,188.22598 27.18806,299.06876 -4.29285,12.35998 -38.63568,85.85705 -38.63568,85.85705"
       id="path3064"
       inkscape:connector-curvature="0"
       transform="translate(0,308.2677)"
       sodipodi:nodetypes="csssc" />
  </g>
</svg>
